<?xml version="1.0" encoding="UTF-8" standalone="no"?>
<!-- Created with Inkscape (http://www.inkscape.org/) -->

<svg
   xmlns:dc="http://purl.org/dc/elements/1.1/"
   xmlns:cc="http://creativecommons.org/ns#"
   xmlns:rdf="http://www.w3.org/1999/02/22-rdf-syntax-ns#"
   xmlns:svg="http://www.w3.org/2000/svg"
   xmlns="http://www.w3.org/2000/svg"
   xmlns:sodipodi="http://sodipodi.sourceforge.net/DTD/sodipodi-0.dtd"
   xmlns:inkscape="http://www.inkscape.org/namespaces/inkscape"
   id="svg37916"
   version="1.1"
   inkscape:version="0.91 r13725"
   width="461.5625"
   height="479.0625"
   viewBox="0 0 261.5625 479.0625"
   sodipodi:docname="ComicCharacter129.svg">
  <metadata
     id="metadata37922">
    <rdf:RDF>
      <cc:Work
         rdf:about="">
        <dc:format>image/svg+xml</dc:format>
        <dc:type
           rdf:resource="http://purl.org/dc/dcmitype/StillImage" />
        <dc:title></dc:title>
      </cc:Work>
    </rdf:RDF>
  </metadata>
  <defs
     id="defs37920" />
  <sodipodi:namedview
     pagecolor="#ffffff"
     bordercolor="#666666"
     borderopacity="1"
     objecttolerance="10"
     gridtolerance="10"
     guidetolerance="10"
     inkscape:pageopacity="0"
     inkscape:pageshadow="2"
     inkscape:window-width="1600"
     inkscape:window-height="837"
     id="namedview37918"
     showgrid="false"
     inkscape:zoom="1.3985649"
     inkscape:cx="130.78125"
     inkscape:cy="239.53125"
     inkscape:window-x="-8"
     inkscape:window-y="-8"
     inkscape:window-maximized="1"
     inkscape:current-layer="svg37916" />
  <path
     style="fill:#5B8D27"
     d="m 94.167469,476.77206 c -1.231485,-1.87949 -1.866139,-2.12954 -3.537236,-1.39365 -5.215301,2.29661 -18.442733,-8.93168 -18.442733,-15.65537 0,-3.38836 3.803961,-10.38034 6.133782,-11.27438 2.4557,-0.94234 1.434453,-1.88394 -1.565719,-1.44361 -2.205113,0.32365 -2.822724,0.10909 -2.491384,-0.86549 0.283879,-0.83498 1.910007,-1.30392 4.572561,-1.31861 4.772542,-0.0263 9.563082,-3.02451 11.036131,-6.90699 1.159203,-3.0553 2.028881,-35.91174 0.999247,-37.75159 -0.416129,-0.74358 -0.355324,-3.1379 0.135122,-5.32071 0.490445,-2.18282 0.991797,-7.96133 1.114114,-12.84116 0.159253,-6.35332 0.55512,-8.87285 1.394271,-8.87395 0.644531,-8.6e-4 1.171875,0.66642 1.171875,1.48282 0,0.81641 0.527344,1.29835 1.171875,1.07097 0.644531,-0.22736 1.060425,-1.21173 0.924197,-2.18749 -0.136219,-0.97575 -0.519506,-4.91184 -0.851738,-8.74686 -0.459759,-5.30695 -0.792975,-6.46211 -1.394775,-4.83529 -0.434878,1.1756 -0.551709,2.52415 -0.259612,2.99677 0.720028,1.16503 -0.435628,4.59253 -1.548471,4.59253 -0.559182,0 -0.673125,-8.17352 -0.303859,-21.79687 0.389449,-14.36803 0.256877,-22.59568 -0.388979,-24.14063 -0.83395,-1.99489 -1.002543,-1.43672 -1.132664,3.75 -0.113687,4.53169 -0.345282,5.49295 -0.903474,3.75 -0.41283,-1.28906 -0.792653,-4.13672 -0.84405,-6.32812 -0.06535,-2.7864 -0.49653,-3.98438 -1.434065,-3.98438 -1.099663,0 -1.250861,1.50418 -0.841241,8.369 0.297746,4.98991 0.01268,11.14098 -0.706004,15.23437 -0.662958,3.77596 -1.094323,7.64681 -0.958588,8.60187 0.46762,3.29033 -2.064855,9.83845 -4.000799,10.34471 -1.773573,0.4638 -1.759932,0.55524 0.335975,2.25241 2.271282,1.83917 1.917608,4.26057 -0.487501,3.33765 -0.756925,-0.29047 -1.376227,-0.0702 -1.376227,0.48959 0,0.71674 -0.697755,0.69978 -2.359493,-0.0574 -1.974844,-0.8998 -2.559136,-0.80203 -3.58415,0.59976 -1.510905,2.06629 -5.859953,1.35601 -9.571023,-1.56312 -1.362744,-1.07193 -3.504771,-2.06172 -4.760059,-2.19951 -1.255288,-0.13779 -4.310342,-1.5519 -6.789009,-3.14245 -2.478667,-1.59054 -4.895596,-2.8919 -5.370954,-2.8919 -0.475358,0 -1.391218,-0.84375 -2.035244,-1.875 -0.739881,-1.18474 -2.186276,-1.875 -3.928928,-1.875 -1.650768,0 -3.127727,-0.65864 -3.679009,-1.64063 -0.877179,-1.5625 -0.951138,-1.5625 -1.553136,0 -1.061523,2.7552 -2.256541,1.83061 -2.125887,-1.64481 0.06793,-1.80699 -0.155851,-3.56481 -0.497297,-3.90625 -0.341446,-0.34144 -0.620811,0.0574 -0.620811,0.88636 0,0.82894 -0.341004,1.71793 -0.757788,1.97551 -0.416782,0.25759 -0.782246,-5.09642 -0.812142,-11.8978 -0.0595,-13.53693 -1.038575,-34.84192 -1.839233,-40.02238 -0.36951,-2.39081 -1.8954,-4.61691 -5.622885,-8.20313 C 20.966787,287.21484 18.303009,285 17.860945,285 c -0.442064,0 -3.38547,-3.60932 -6.540902,-8.02071 l -5.7371505,-8.0207 -0.2741358,-7.68242 c -0.1941645,-5.44129 0.1880877,-8.96084 1.3103319,-12.06475 1.3160769,-3.64 1.4557502,-5.94263 0.8245726,-13.59375 C 6.2847542,221.56944 4.8255065,212.27914 2.2536063,202.5752 0.81678517,197.15397 0.02033649,191.90517 0.19090212,188.98145 l 0.27784788,-4.7627 4.21875,-1.038 c 2.3203125,-0.5709 6.590759,-1.33283 9.489881,-1.69315 6.307417,-0.78396 8.322619,0.59349 8.322619,5.68874 0,2.22445 0.38012,3.16133 1.171875,2.88829 0.775725,-0.26749 1.066495,-1.8785 0.860146,-4.76562 -0.171451,-2.39883 -0.117503,-4.36151 0.119884,-4.36151 0.237387,0 1.959696,0.63847 3.827354,1.41883 3.031819,1.26678 3.395741,1.26678 3.395741,0 0,-0.78036 0.696067,-1.41883 1.546816,-1.41883 0.850748,0 4.473745,-1.6875 8.051104,-3.75 3.577357,-2.0625 7.557072,-3.75 8.843808,-3.75 1.426344,0 2.190468,-0.44716 1.957652,-1.14561 -0.235314,-0.70594 -2.396182,-1.17842 -5.63042,-1.23112 -2.886702,-0.0471 -5.908707,-0.63339 -6.715566,-1.30302 -0.806859,-0.66963 -2.132788,-0.96204 -2.946509,-0.64978 -1.13183,0.43432 -1.34318,0.13825 -0.899407,-1.25996 0.438842,-1.38266 -0.214681,-2.34866 -2.684026,-3.96736 -1.795261,-1.17682 -3.940713,-3.4103 -4.767671,-4.96329 -0.826957,-1.55299 -2.221398,-3.96761 -3.098758,-5.36583 -1.301528,-2.07421 -1.40257,-3.05256 -0.548854,-5.3143 0.942531,-2.49705 0.724969,-3.22149 -2.192782,-7.30153 C 18.369873,134.75425 15,127.43205 15,124.0084 c 0,-1.56305 0.639958,-4.37356 1.42213,-6.24556 0.782172,-1.872 1.180674,-4.36566 0.885561,-5.54149 -0.430489,-1.71521 0.446761,-3.03155 4.437246,-6.65825 2.735596,-2.48621 5.952644,-4.62993 7.148993,-4.7638 1.196348,-0.13388 2.600238,-0.66847 3.119753,-1.187984 1.206262,-1.206263 2.622508,-7.276053 2.651451,-11.363681 0.02541,-3.587927 5.678237,-13.633952 8.530753,-15.160573 3.344592,-1.789971 2.235558,-24.021607 -1.549054,-31.05226 -0.739114,-1.373047 -1.505482,-3.904297 -1.703041,-5.625 -0.197559,-1.720704 -0.406357,-3.430279 -0.463995,-3.799056 -0.05764,-0.368777 -1.264953,-2.057665 -2.682922,-3.753085 -1.417969,-1.69542 -3.042554,-3.924943 -3.61019,-4.954496 -0.567635,-1.029553 -3.309823,-3.025003 -6.09375,-4.434333 L 22.03125,16.906413 25.760816,16.890707 29.490382,16.875 25.057691,12.805348 C 20.399893,8.5290257 20.093092,7.8987473 21.5625,5.625 c 0.747185,-1.1561853 0.911341,-1.0602128 0.923144,0.5397056 0.01505,2.0395125 3.077006,5.3353734 5.873731,6.3224224 1.980726,0.699057 1.970732,0.871731 0.234375,-4.049628 C 26.945946,3.7671248 26.817551,1.875 28.148437,1.875 c 0.528516,0 1.214063,1.265625 1.523438,2.8125 0.778255,3.8912755 2.031282,3.5212339 2.380908,-0.703125 0.233721,-2.8239518 0.705971,-3.57456496 2.400342,-3.81520402 1.888627,-0.26822792 2.126156,0.12421143 2.269734,3.74999992 0.0882,2.2272686 0.254291,4.6823916 0.369095,5.4558291 0.114804,0.773438 0.25358,3.380022 0.308391,5.79241 0.05481,2.412389 0.639765,4.943639 1.299899,5.625 0.660133,0.681362 1.763748,3.137277 2.452477,5.45759 2.271575,7.652887 3.091843,9.306433 4.901531,9.880806 3.682957,1.168925 6.4295,13.897352 6.460104,29.93835 0.02075,10.875942 0.42661,11.178901 10.149761,7.576415 3.400018,-1.259727 5.484374,-1.358805 12.65625,-0.601602 11.074398,1.16923 16.058002,2.753303 24.341142,7.737003 7.186021,4.323603 10.125741,6.540128 13.159471,9.922153 1.04068,1.160156 2.65484,2.109375 3.58704,2.109375 1.18737,0 1.628,0.615458 1.47155,2.055403 -0.15087,1.388588 0.68911,2.665763 2.58918,3.936778 3.22682,2.158539 9.57216,9.848749 11.88577,14.404929 0.86529,1.70402 2.67035,6.56568 4.01125,10.80369 1.34089,4.23799 2.84776,9.00103 3.34861,10.58451 1.83939,5.81551 0.27514,21.54225 -3.37364,33.91781 -0.4641,1.5741 -0.23733,2.10938 0.89367,2.10938 0.83358,0 1.51559,0.42187 1.51559,0.9375 0,0.51562 0.5651,0.9375 1.25576,0.9375 0.69068,0 1.73632,1.05469 2.32366,2.34375 0.58734,1.28906 1.67943,2.34375 2.42687,2.34375 2.5138,0 4.99063,9.09553 5.43592,19.96198 l 0.41461,10.11823 5.32159,5.37771 c 2.92688,2.95774 5.32159,5.66314 5.32159,6.01201 0,0.64045 3.9051,6.84227 5.55164,8.81673 1.68875,2.02508 9.14314,16.75056 9.78162,19.32271 0.80759,3.25345 2.87382,3.31503 8.24292,0.24568 5.48258,-3.13423 9.32582,-3.03778 13.18807,0.33096 1.69372,1.47731 4.06723,2.99453 5.27446,3.37159 1.26677,0.39566 2.76596,2.05218 3.54525,3.91728 0.74266,1.77743 1.94936,3.46159 2.68157,3.74256 3.12666,1.19982 5.22073,15.40595 2.92526,19.8449 -1.73978,3.36437 -4.94959,5.87035 -6.67234,5.20928 -1.60105,-0.61439 -2.72703,1.32643 -1.59765,2.75382 1.04287,1.31806 -0.85014,14.29521 -1.92805,13.21731 -0.37414,-0.37413 -0.68025,-0.21296 -0.68025,0.35817 0,0.57113 0.42187,1.29916 0.9375,1.61783 0.51562,0.31867 0.9375,2.61115 0.9375,5.09439 0,8.99368 0.58147,10.0816 7.10491,13.29307 8.4367,4.15338 13.52009,8.71821 13.52009,12.14089 0,6.21451 -5.21841,24.60379 -9.42575,33.21567 -2.03459,4.16452 -3.69925,7.9515 -3.69925,8.4155 0,0.46398 -1.50386,3.74963 -3.34193,7.30142 -2.92772,5.65745 -3.32558,7.23359 -3.21011,12.71719 0.3271,15.53352 0.0156,19.69316 -1.59553,21.30426 -1.48841,1.48842 -1.2926,1.86405 3.21156,6.16071 4.01855,3.83344 5.37818,4.57733 8.38193,4.58597 7.98417,0.023 10.63741,0.99745 13.02839,4.785 2.93552,4.65015 6.57282,6.45468 13.01038,6.45468 8.79365,0 6.33229,1.87414 -4.52298,3.44392 -2.38597,0.34503 -3.78002,1.09106 -4.06334,2.1745 -0.69163,2.64476 -4.38658,4.08805 -8.69997,3.39831 -2.11758,-0.33861 -9.8418,-0.83461 -17.16491,-1.10223 -14.06908,-0.51414 -20.69311,-1.46702 -24.84596,-3.57417 -3.13994,-1.59318 -10.36793,-2.70756 -16.71913,-2.57767 -5.54627,0.11343 -6.4308,-0.63637 -7.35413,-6.23395 -0.92321,-5.59693 0.25033,-12.78349 2.67587,-16.38659 4.25452,-6.32001 8.33575,-20.53769 9.89034,-34.45462 1.10606,-9.90173 2.44663,-15.46768 4.3956,-18.25024 0.71441,-1.01995 1.29892,-2.18246 1.29892,-2.58336 0,-0.99175 -2.47702,-0.91942 -4.46585,0.1304 -0.89535,0.47262 -2.94324,1.34445 -4.55087,1.93741 -3.96426,1.46219 -10.67078,8.06081 -10.67078,10.49909 0,4.21468 -6.42297,15.27989 -12.42365,21.40291 -5.38071,5.49041 -13.82635,18.01889 -13.82635,20.51036 0,0.53663 -1.16016,2.36285 -2.57812,4.05826 -3.05087,3.64784 -4.07014,5.27867 -7.19613,11.51392 -2.43274,4.85243 -6.16325,19.88393 -6.16325,24.83382 0,2.43804 0.35112,2.8314 2.57813,2.88833 1.41796,0.0363 3.42187,0.42845 4.45312,0.8716 1.875,0.80572 1.875,0.80572 0,0.88597 -1.27279,0.0545 -1.50475,0.31544 -0.72222,0.81254 1.31143,0.83308 -2.36964,3.29349 -6.33283,4.23286 -1.46236,0.3466 -3.25454,2.0671 -4.6875,4.5 -5.41485,9.19342 -11.26505,11.99248 -14.558731,6.96569 z m 4.537847,-4.28667 c -0.753572,-2.88168 -2.142816,-3.21198 -2.142816,-0.50947 0,1.43654 0.528994,2.39908 1.318481,2.39908 0.860325,0 1.146769,-0.65663 0.824335,-1.88961 z m -6.914851,-1.30166 c 1.252816,-1.33356 2.001207,-3.15175 1.83297,-4.45312 -0.156384,-1.20965 0.0114,-2.67403 0.372846,-3.25418 1.122488,-1.80166 -2.140017,-9.61421 -4.787044,-11.46328 -3.753498,-2.622 -7.333184,-3.23648 -8.775153,-1.50635 -0.668434,0.80202 -1.905583,2.17624 -2.749223,3.05383 -2.520038,2.62146 -3.135334,8.99285 -1.111548,11.51008 4.043638,5.02955 7.641574,7.39886 12.560143,8.27108 0.296837,0.0527 1.492492,-0.91849 2.657009,-2.15806 z m 13.446955,-1.41203 c 1.41629,-1.50057 2.5885,-3.29353 2.60489,-3.98438 0.0164,-0.69084 0.6357,-2.0565 1.37622,-3.03481 1.91261,-2.52674 0.71129,-3.75193 -1.96159,-2.00058 -1.64238,1.07611 -2.25694,1.15961 -2.25694,0.30661 0,-2.24547 -4.98546,3.83018 -5.260613,6.41097 -0.257287,2.41319 0.955803,5.03049 2.331573,5.03049 0.32526,0 1.75016,-1.22774 3.16646,-2.7283 z m -3.04403,-10.86545 c 2.20944,-2.57813 4.77739,-4.98214 5.70655,-5.34226 2.2527,-0.87308 4.21125,-4.94768 4.8948,-10.18326 l 0.5582,-4.27551 -5.38581,0.38958 c -2.9622,0.21426 -6.98689,-0.0525 -8.943758,-0.59282 -2.162813,-0.59719 -4.409531,-0.65863 -5.729704,-0.15671 l -2.171756,0.82571 2.392682,7.79264 c 1.315978,4.28594 2.58225,9.81765 2.813934,12.29267 0.231694,2.47502 0.7422,4.37345 1.134469,4.21875 0.392259,-0.15471 2.520937,-2.39067 4.730393,-4.96879 z m 11.58314,2.8125 c -0.2968,-0.77344 -0.70543,-1.40625 -0.90808,-1.40625 -0.20264,0 -0.36845,0.63281 -0.36845,1.40625 0,0.77344 0.40864,1.40625 0.90808,1.40625 0.49944,0 0.66524,-0.63281 0.36845,-1.40625 z m 111.10628,-21.67969 c 2.24786,-0.44957 2.92969,-1.08079 2.92969,-2.71219 0,-2.30031 -1.58794,-3.26437 -5.37684,-3.26437 -1.32604,0 -4.63141,-1.05043 -7.34527,-2.33429 -4.37146,-2.06803 -5.47598,-2.23155 -9.68357,-1.4336 -4.8419,0.91825 -11.69519,3.93524 -12.7253,5.60201 -0.31389,0.50788 0.60671,1.18766 2.04576,1.51063 1.43906,0.32297 3.95351,0.92475 5.58768,1.33727 2.37936,0.60065 3.62202,0.30781 6.23846,-1.47011 3.05241,-2.07416 3.45162,-2.12819 6.07077,-0.82159 1.54194,0.76922 3.32144,2.02264 3.95445,2.78538 1.24013,1.49427 3.66695,1.7283 8.30417,0.80086 z m -110.85948,-4.80469 c 0.67604,-2.80414 5.00321,-11.78613 8.22591,-17.07469 1.11135,-1.82376 2.98766,-5.84718 4.16959,-8.94093 1.18192,-3.09375 2.54151,-6.35755 3.02132,-7.2529 1.2246,-2.28523 1.19504,-2.31347 -1.94015,-1.85333 -1.68826,0.24779 -2.8125,-0.005 -2.8125,-0.63111 0,-0.57416 1.06953,-1.04391 2.37673,-1.04391 4.46851,0 15.88414,-9.20739 21.46852,-17.31567 3.18672,-4.62698 3.4251,-5.39092 2.55575,-8.19051 -0.52731,-1.69816 -1.22969,-5.19694 -1.56083,-7.77507 -0.35542,-2.76714 -1.4898,-5.79033 -2.76897,-7.37945 -1.87612,-2.33071 -2.92583,-2.7367 -7.82232,-3.02543 -3.11047,-0.1834 -7.64668,-0.77973 -10.08046,-1.32515 -6.53961,-1.46555 -11.85864,0.5901 -18.23605,7.04772 l -5.07342,5.13724 1.25071,3.99129 c 2.06496,6.58973 1.69678,9.75377 -1.53059,13.15333 -1.57973,1.66399 -3.18985,4.0746 -3.57806,5.3569 -0.3882,1.28229 -1.751516,3.91159 -3.029582,5.84287 -1.385522,2.09367 -2.124028,4.27513 -1.8291,5.40292 0.315028,1.20469 0.03675,1.89151 -0.766406,1.89151 -2.058178,0 -2.996716,9.12624 -2.531755,24.61855 0.299361,9.97468 2.297792,11.66283 14.028603,11.8505 5.62786,0.09 5.86424,-8.4e-4 6.46305,-2.48468 z m 4.09135,-41.19466 c -0.006,-1.96403 -0.23555,-5.25846 -0.51083,-7.32096 l -0.5005,-3.75 1.43421,3.75 c 1.64109,4.29093 1.90422,9.46006 0.52494,10.3125 -0.56175,0.34718 -0.94163,-0.85184 -0.94782,-2.99154 z m -1.35589,-12.41243 c -0.29666,-0.48 -0.11062,-1.13771 0.41342,-1.46158 0.52403,-0.32387 0.95279,0.0688 0.95279,0.87272 0,1.64675 -0.56256,1.88921 -1.36621,0.58886 z m 61.36621,53.84147 c -2.6638,-1.52277 -16.91278,-2.00343 -15.42188,-0.52023 0.78158,0.77755 4.12798,1.16156 14.95313,1.71599 l 2.8125,0.14405 -2.34375,-1.33981 z m 10.45822,-5.80096 c 1.92944,-1.69131 9.56547,-4.04279 13.12828,-4.04279 1.46492,0 2.6594,-0.31641 2.6544,-0.70313 -0.0324,-2.50823 -13.77172,-16.16971 -15.60811,-15.51975 -1.66002,0.58753 -2.50054,-1.49845 -1.22371,-3.03693 0.92545,-1.1151 0.80133,-1.36519 -0.67761,-1.36519 -0.99583,0 -2.62952,0.6194 -3.63041,1.37644 -1.00089,0.75703 -2.60322,1.38984 -3.56074,1.40625 -1.17013,0.0201 -1.55435,0.49088 -1.17187,1.43606 0.31298,0.77344 0.8438,2.08775 1.17962,2.92069 0.49727,1.23344 0.19287,1.39227 -1.64063,0.85603 -1.23816,-0.36212 -2.884,-1.36015 -3.65744,-2.21785 -1.17991,-1.30847 -5.82915,-3.90262 -6.99427,-3.90262 -0.89634,0 -8.11736,15.89898 -8.61566,18.96964 -0.50103,3.08747 -0.30296,3.58612 1.73168,4.35969 1.46088,0.55543 3.63776,0.52026 5.97846,-0.0966 2.7707,-0.73017 5.30398,-0.62676 10.24354,0.41817 7.00319,1.48147 9.39263,1.30865 11.86447,-0.85812 z M 225,430.4128 c 0,-1.15442 -2.41717,-1.9753 -5.81647,-1.9753 -2.42759,0 -2.67742,0.20869 -1.68353,1.40625 1.24486,1.49996 7.5,1.97456 7.5,0.56905 z m -25.59222,-24.90437 c -0.23243,-7.9404 -0.85517,-9.24604 -2.50745,-5.25707 -0.64051,1.54631 -1.75198,3.29899 -2.46995,3.89485 -2.07995,1.72622 -1.52029,4.83074 1.27229,7.05746 1.4177,1.13045 2.87696,1.87038 3.24278,1.64428 0.36581,-0.22608 0.57386,-3.52887 0.46233,-7.33952 z m 2.83978,-6.39609 c -0.19661,-2.17585 -0.35514,-0.15922 -0.35229,4.48141 0.003,4.64062 0.16373,6.42086 0.35748,3.95609 0.19377,-2.46478 0.19142,-6.26166 -0.006,-8.4375 z m -18.02881,4.70555 c 2.0625,-1.06597 4.6195,-2.36868 5.68222,-2.89493 1.06273,-0.52624 3.46259,-3.5156 5.33302,-6.64301 4.13852,-6.91969 16.859,-33.32882 18.5214,-38.45249 0.66095,-2.03708 2.16938,-5.89183 3.35206,-8.5661 1.18269,-2.67427 2.66922,-7.37447 3.30341,-10.44488 1.25772,-6.08929 0.38256,-8.63183 -3.75747,-10.91622 -11.10267,-6.12628 -13.98135,-7.33971 -15.45535,-6.51481 -3.57231,1.99916 -14.98344,14.19557 -16.94821,18.11455 -2.1789,4.34607 -3.76836,15.545 -2.33226,16.43256 0.44121,0.27268 2.39885,-0.35997 4.3503,-1.40589 3.62539,-1.94309 7.79463,-2.53488 7.79463,-1.10638 0,0.43741 -1.6841,1.45683 -3.74244,2.26537 -5.05469,1.98553 -11.92938,6.46146 -12.57822,8.18934 -0.29043,0.77344 -1.3352,2.71656 -2.3217,4.31805 -2.17026,3.52324 -3.58275,10.36872 -4.30623,20.86985 -0.29724,4.31427 -0.89235,8.53302 -1.32249,9.375 -1.99089,3.89715 -2.01276,6.65326 -0.0682,8.59777 1.62904,1.62904 2.64356,1.84175 6.3424,1.32979 2.42175,-0.3352 6.09068,-1.48161 8.15318,-2.54757 z m -83.9206,-25.3576 c 0.008,-1.51976 -0.382119,-2.38842 -0.92315,-2.05404 -0.515625,0.31867 -0.931041,2.13654 -0.923147,4.03971 0.01069,2.57928 0.245738,3.10225 0.923147,2.05404 0.499837,-0.77344 0.91525,-2.59131 0.92315,-4.03971 z M 153.75,367.96875 c 0,-0.77344 -0.42188,-1.40625 -0.9375,-1.40625 -0.51563,0 -0.9375,0.63281 -0.9375,1.40625 0,0.77344 0.42187,1.40625 0.9375,1.40625 0.51562,0 0.9375,-0.63281 0.9375,-1.40625 z M 70.3125,366.5625 c -0.773438,-0.49984 -2.25,-0.90878 -3.28125,-0.90878 -1.552628,0 -1.633221,0.15624 -0.46875,0.90878 0.773437,0.49984 2.25,0.90878 3.28125,0.90878 1.552627,0 1.633221,-0.15624 0.46875,-0.90878 z m 33.14495,-4.23485 c 1.96592,-4.78036 6.60663,-9.02689 12.52289,-11.45921 5.27359,-2.1681 5.11602,-3.04671 -0.32318,-1.80203 -3.36619,0.77029 -5.58711,2.22652 -9.87578,6.47542 -3.34202,3.31103 -5.75229,6.57831 -6.086852,8.25115 -0.887822,4.43912 1.758502,3.4086 3.762922,-1.46533 z m 54.42924,2.73037 c 1.90808,-0.73221 0.97838,-2.24552 -1.37952,-2.24552 -1.00082,0 -1.81967,0.63281 -1.81967,1.40625 0,1.51211 0.85871,1.73738 3.19919,0.83927 z m 4.76956,-4.12052 c 0.32992,-0.53381 -0.47746,-0.9375 -1.875,-0.9375 -1.39754,0 -2.20492,0.40369 -1.875,0.9375 0.31868,0.51562 1.16243,0.9375 1.875,0.9375 0.71257,0 1.55632,-0.42188 1.875,-0.9375 z m -82.631051,-4.29818 c 1.822773,-2.28446 2.76158,-4.63367 2.931679,-7.33607 0.137628,-2.18651 0.541437,-4.89296 0.897353,-6.01436 0.355916,-1.12139 0.291727,-2.03889 -0.142643,-2.03889 -1.401371,0 -14.122948,13.52329 -14.772187,15.70312 -1.074491,3.60764 0.916305,2.33875 5.515756,-3.51562 2.430588,-3.09375 5.024072,-5.625 5.763297,-5.625 1.81006,0 1.693615,1.14672 -0.296579,2.92062 -3.523489,3.14056 -5.971489,6.68498 -5.48774,7.94561 0.844601,2.20099 2.767198,1.4997 5.591064,-2.03941 z m -12.138614,-2.02995 c 1.256807,-1.93359 4.420469,-5.79583 7.030358,-8.58274 7.565853,-8.07905 8.883898,-10.81143 4.685612,-9.71355 -2.288112,0.59835 -14.126565,14.24987 -13.390352,15.44108 0.293686,0.47519 -0.181493,1.65457 -1.055953,2.62084 -0.87446,0.96627 -1.312764,2.20531 -0.97401,2.75343 0.926163,1.49855 1.225074,1.29529 3.704345,-2.51905 z m -6.328197,-0.46875 c -0.260074,-0.64453 -0.472861,-0.11718 -0.472861,1.17188 0,1.28906 0.212787,1.81641 0.472861,1.17187 0.260074,-0.64453 0.260074,-1.69921 0,-2.34375 z m 35.027803,-7.73437 c -9.38e-4,-3.09375 0.253472,-10.4227 0.565603,-16.28655 0.452559,-8.50177 0.321543,-10.57957 -0.646725,-10.2568 -0.928416,0.30947 -1.273266,4.8055 -1.4649,19.09905 -0.173428,12.93437 0.02644,17.82773 0.648637,15.8818 0.494606,-1.54688 0.898435,-5.34375 0.897385,-8.4375 z m 6.800749,8.37775 c 1.18799,-2.26735 2.60635,-3.34786 8.17556,-6.22812 1.54748,-0.80032 6.55994,-1.23466 14.75381,-1.27845 6.82555,-0.0365 12.7318,-0.39863 13.125,-0.8048 0.39322,-0.40616 -0.12881,-0.57189 -1.16006,-0.3683 -1.03125,0.20359 -2.33153,-0.22766 -2.8895,-0.95832 -0.55797,-0.73068 -3.20107,-1.5386 -5.87357,-1.7954 -4.34842,-0.41783 -4.68516,-0.60343 -3.20425,-1.76608 0.91015,-0.71456 1.23295,-1.24312 0.71732,-1.17459 -2.49746,0.33193 -4.26963,-0.19416 -3.70912,-1.10109 0.38095,-0.61638 2.03015,-0.76545 4.27409,-0.38634 2.38594,0.4031 3.65378,0.2634 3.65378,-0.4026 0,-0.56096 -0.63281,-1.01991 -1.40625,-1.01991 -0.77344,0 -1.40625,-0.42188 -1.40625,-0.9375 0,-2.32475 -22.70007,0.25535 -25.94572,2.949 -0.68297,0.56682 -1.24178,1.83531 -1.24178,2.81886 0,1.71404 0.11133,1.70597 2.68183,-0.19449 2.02117,-1.49432 4.59714,-2.11403 10.45673,-2.51566 5.74635,-0.39387 7.60053,-0.25077 7.10659,0.54844 -0.36757,0.59474 -2.85826,1.11345 -5.53486,1.15267 -5.20404,0.0762 -9.18423,1.28519 -12.81219,3.89149 -3.60015,2.58633 -1.76025,2.72409 3.29796,0.24694 2.55623,-1.25186 5.49144,-2.26131 6.52269,-2.24321 1.0371,0.0182 -0.84818,1.36668 -4.21875,3.01756 -6.14556,3.01003 -9.209091,6.65294 -8.07662,9.60409 0.73083,1.90453 1.27387,1.69356 2.71356,-1.05419 z m 16.14431,-11.659 c -0.32861,-0.53171 0.45902,-0.9375 1.81967,-0.9375 1.31949,0 2.39908,0.42187 2.39908,0.9375 0,0.51562 -0.81885,0.9375 -1.81967,0.9375 -1.00082,0 -2.0804,-0.42188 -2.39908,-0.9375 z m 50.06364,5.99877 c 3.96769,-4.24856 6.65511,-6.49734 6.65511,-5.56887 0,0.85654 -2.17058,3.85239 -4.82349,6.65747 -5.71619,6.04403 -4.4759,6.75411 2.02154,1.15735 3.64097,-3.13626 4.69949,-4.71836 5.1747,-7.73437 0.33164,-2.10481 2.43916,-6.60182 4.73733,-10.10848 2.27696,-3.4743 4.13992,-6.98293 4.13992,-7.79697 0,-0.81404 1.47291,-3.03393 3.27312,-4.9331 2.9831,-3.14709 4.566,-6.69645 2.38537,-5.34875 -3.24188,2.00359 -19.35996,17.53171 -22.33704,21.51944 -3.97251,5.32112 -9.73701,10.85468 -14.8277,14.23369 -2.78094,1.84588 -5.05625,3.73699 -5.05625,4.20248 0,0.46549 2.70052,0.84634 6.00114,0.84634 l 6.00115,0 6.6551,-7.12623 z m -11.15739,5.57915 c 0,-0.33528 3.29595,-3.81575 7.32434,-7.73438 4.02839,-3.91863 9.2867,-9.30539 11.68513,-11.97056 4.8487,-5.38793 6.30303,-6.54471 6.30303,-5.01342 0,1.88592 -22.40227,25.32794 -24.20454,25.32794 -0.60938,0 -1.10796,-0.27431 -1.10796,-0.60958 z m 18.7628,-1.13135 c 0.007,-0.33155 0.2539,-1.65751 0.54857,-2.94657 l 0.53576,-2.34375 -1.93397,2.34375 c -2.27578,2.75798 -2.56793,4.85592 -0.56941,4.08903 0.77344,-0.29681 1.41201,-0.8109 1.41905,-1.14246 z m -38.70207,-1.83364 c 0.73008,-0.46375 -0.41449,-1.15299 -3.11341,-1.87484 -4.93972,-1.32117 -7.36548,-0.51941 -4.0271,1.33105 2.53456,1.4049 5.43695,1.62593 7.14051,0.54379 z m 17.60414,-3.09188 c 2.22825,-1.50383 6.72381,-5.74341 9.99013,-9.42126 5.40003,-6.08041 10.67917,-11.40917 20.79812,-20.99358 2.80474,-2.65658 3.35336,-3.65906 2.46094,-4.49684 -0.86906,-0.81585 -1.25702,-0.7809 -1.59477,0.1437 -0.70313,1.9248 -5.19882,5.76278 -6.09879,5.20656 -0.44722,-0.27639 0.3276,-1.55972 1.72182,-2.85184 2.04381,-1.89413 2.27982,-2.51255 1.21819,-3.1919 -0.9198,-0.58858 -1.80958,-0.20832 -2.95152,1.26138 -2.08248,2.68023 -2.22892,2.82482 -7.27149,7.1798 -5.31444,4.58979 -4.62095,5.78027 0.84673,1.45355 2.23709,-1.77028 4.49571,-2.95401 5.01913,-2.6305 0.94162,0.58194 0.48233,1.04015 -5.95885,5.94488 -3.57046,2.71878 -7.5006,6.57032 -15.42992,15.12135 -3.12354,3.36845 -7.02589,6.72057 -8.67187,7.44916 -3.04354,1.3472 -3.492,1.93022 -2.3574,3.0648 0.93324,0.93324 3.70229,-0.1501 8.27955,-3.23926 z M 55.200149,347.81758 c 3.043079,-5.83828 9.445529,-13.45753 15.283495,-18.18817 2.930067,-2.3743 5.676566,-4.31691 6.10333,-4.31691 1.410215,0 5.964324,-4.78355 5.409214,-5.68173 -0.926339,-1.49885 -1.962123,-1.02307 -7.378999,3.38949 -6.156991,5.01544 -7.010804,4.61576 -1.257814,-0.58881 2.939907,-2.65965 3.542095,-3.61463 2.297194,-3.643 -2.311575,-0.0527 -6.75015,2.29287 -12.609694,6.66353 -4.701412,3.50681 -6.177174,3.82338 -3.720185,0.79802 0.628134,-0.77344 3.645712,-3.09329 6.70573,-5.15522 3.827556,-2.57913 5.061346,-3.84572 3.953885,-4.05899 -0.885381,-0.17051 -3.09674,0.56731 -4.914132,1.63959 -3.694805,2.17999 -4.134673,2.30092 -4.134673,1.1367 0,-0.44711 1.734672,-1.96087 3.854827,-3.36392 2.778342,-1.83862 3.569913,-2.83592 2.834568,-3.57126 -0.735345,-0.73535 -1.909521,-0.38501 -4.204652,1.25454 C 60.453079,316.2525 48.75,328.55081 48.75,329.54993 c 0,1.30061 1.995559,0.0333 5.464627,-3.47049 2.134965,-2.15631 4.161327,-3.64099 4.503027,-3.29929 0.3417,0.3417 -1.055774,2.21142 -3.105498,4.15494 -7.20063,6.82751 -13.639976,17.28709 -11.784781,19.14228 0.742392,0.74239 1.710358,-0.32587 3.505866,-3.86913 2.653804,-5.23704 4.520198,-5.91646 2.080531,-0.75739 -4.047845,8.55984 -2.138318,11.59508 2.37968,3.78257 3.329352,-5.7571 7.01529,-10.17468 7.818981,-9.37099 0.3481,0.3481 -1.36917,3.56305 -3.816155,7.14434 -2.446985,3.58129 -4.164789,6.9714 -3.817342,7.53358 0.929271,1.50359 1.088426,1.36907 3.221213,-2.72277 z M 60.9375,333.20896 c 0,-0.80266 4.907511,-5.08125 5.829952,-5.08282 0.370536,-6.2e-4 0.462774,0.54853 0.204974,1.22035 -0.520793,1.35716 -6.034926,4.88631 -6.034926,3.86247 z m -1.325095,17.63606 c 0.56026,-0.37882 2.126168,-2.58721 3.479797,-4.90752 3.032721,-5.19852 10.730011,-13.67779 11.613958,-12.79384 0.357252,0.35726 -1.328924,2.65823 -3.747056,5.11327 -2.418132,2.45505 -4.396604,4.83129 -4.396604,5.28053 0,0.44924 -1.076157,2.22772 -2.39146,3.95217 -1.315303,1.72445 -1.968384,3.13537 -1.451289,3.13537 0.517095,0 2.180412,-1.80262 3.696261,-4.00583 2.899655,-4.21451 9.373439,-10.56289 13.586716,-13.32354 1.3735,-0.89995 2.497272,-2.22057 2.497272,-2.9347 0,-1.75892 -0.60001,-1.63592 -2.8125,0.57657 -3.025142,3.02514 -4.362823,2.1485 -1.415619,-0.92772 4.984634,-5.20284 1.09868,-4.76105 -6.240209,0.70943 -4.668155,3.4797 -15.781672,17.4343 -15.781672,19.81614 0,1.16763 1.842548,1.33733 3.362405,0.30967 z m 89.988785,-5.95819 c 0.28021,-0.45338 -1.04365,-0.82433 -2.94191,-0.82433 -2.84821,0 -3.26145,0.22884 -2.36461,1.30947 1.10063,1.32616 4.3719,1.0271 5.30652,-0.48514 z M 35.015003,344.56128 c 0.290459,-0.75693 0.124658,-1.62558 -0.368447,-1.93033 -0.493106,-0.30477 -0.896556,0.31454 -0.896556,1.37622 0,2.26366 0.521354,2.49202 1.265003,0.55411 z m 121.500347,-6.29124 c 2.22061,-2.01009 3.83378,-3.85841 3.58482,-4.10737 -0.24897,-0.24896 -2.72882,0.60657 -5.51079,1.90118 -2.78197,1.29463 -7.06204,2.6236 -9.51126,2.95328 -2.91501,0.39239 -4.45312,1.05437 -4.45312,1.91658 0,1.00948 1.38431,1.27907 5.92643,1.15411 5.47122,-0.15053 6.23657,-0.44378 9.96392,-3.81778 z M 34.413057,335.40156 c -0.224243,-1.16617 -0.416229,-0.43281 -0.426635,1.62969 -0.01041,2.0625 0.173067,3.01664 0.407715,2.12031 0.23465,-0.89634 0.243164,-2.58384 0.01892,-3.75 z m 9.649443,3.03594 c 0.551908,-1.03125 0.792532,-1.875 0.53472,-1.875 -0.257813,0 -0.920312,0.84375 -1.47222,1.875 -0.551908,1.03125 -0.792533,1.875 -0.53472,1.875 0.257812,0 0.920312,-0.84375 1.47222,-1.875 z m -1.289304,-3.98438 C 44.366687,331.30622 48.936597,325.89 55.445239,319.4343 61.044107,313.88098 65.625,309.12778 65.625,308.87164 c 0,-0.25616 -2.161425,0.62955 -4.803166,1.96822 -5.252651,2.66172 -16.184626,12.81628 -15.095059,14.0216 0.373711,0.41341 0.131646,0.43551 -0.537923,0.0491 -0.980771,-0.56596 -0.988459,-1.00518 -0.03955,-2.25968 2.88708,-3.81681 11.19368,-11.4009 12.487039,-11.4009 0.784389,0 1.426162,-0.41621 1.426162,-0.92492 0,-0.50871 1.425061,-1.52034 3.166803,-2.2481 3.445364,-1.43956 4.756255,-2.88401 3.889752,-4.28604 -0.785659,-1.27122 -3.043946,-0.20793 -3.535234,1.66453 -0.227394,0.86668 -1.429123,2.04491 -2.670508,2.61829 -1.241385,0.57338 -4.935647,2.25299 -8.209472,3.73247 -3.399191,1.53613 -7.923152,4.62986 -10.546875,7.21252 -4.133457,4.06877 -4.594466,4.94067 -4.594466,8.68941 0,4.94991 0.993691,5.25547 3.642142,1.11996 1.073199,-1.67578 1.958378,-2.46386 1.967064,-1.75127 0.0087,0.71257 -0.870419,2.72951 -1.953569,4.48208 -1.302843,2.10805 -1.772736,3.96992 -1.388389,5.50129 0.319536,1.27312 0.776768,2.31478 1.01607,2.31478 0.239303,0 1.556622,-2.21484 2.927378,-4.92187 z m 106.567354,1.66218 c 5.84794,-1.77437 15.39121,-6.87656 16.04402,-8.57774 0.38468,-1.00246 0.11101,-1.12496 -1.1088,-0.49635 -5.47166,2.81976 -23.22391,8.62522 -26.28423,8.59565 -0.67496,-0.007 -0.96647,0.41001 -0.64779,0.92564 0.83752,1.35514 6.78766,1.13334 11.9968,-0.4472 z m -39.24649,-1.37553 c 3.05954,-0.54437 7.80563,-0.98977 10.54687,-0.98977 5.33404,0 6.271,-0.87358 2.87469,-2.68024 -4.98896,-2.65386 -23.828376,0.89749 -22.54215,4.24934 0.27421,0.7146 1.1869,1.09929 2.02817,0.85485 0.84129,-0.24442 4.03288,-0.88981 7.09242,-1.43418 z m -62.161977,-2.6304 c 1.166129,-1.48693 1.132969,-1.52009 -0.353958,-0.35396 -0.902344,0.70767 -1.640625,1.44596 -1.640625,1.64063 0,0.7716 0.769862,0.27498 1.994583,-1.28667 z m 100.703857,-1.2462 c 11.65378,-3.79702 14.54732,-5.04211 17.58903,-7.56859 1.64657,-1.36767 2.77726,-2.70919 2.51263,-2.98116 -0.26463,-0.27196 -3.63963,0.88226 -7.5,2.56491 -3.86037,1.68265 -11.98416,4.2366 -18.05287,5.67543 -9.28325,2.20096 -10.85822,2.82787 -9.9261,3.95101 1.436,1.73027 6.779,1.15988 15.37731,-1.6416 z m -32.62032,-2.72704 c 5.04662,-0.0114 6.57472,-1.2245 2.8125,-2.23273 -3.43093,-0.91946 -13.80417,-0.66969 -15.76475,0.37958 -1.18692,0.63522 -1.81337,0.64662 -1.81337,0.033 0,-1.68525 3.53094,-2.8779 8.61024,-2.90828 4.58588,-0.0275 4.83831,-0.13964 3.1637,-1.40625 -2.09103,-1.58158 -6.80623,-1.793 -10.30666,-0.46214 -2.00784,0.76337 -2.40478,1.51131 -2.40478,4.53124 0,1.98933 0.23636,3.85332 0.52524,4.14221 0.28888,0.28888 2.71467,-0.0577 5.39063,-0.77013 2.67596,-0.71246 7.08022,-1.30037 9.78725,-1.30649 z m 30.90811,-2.4038 c 11.27148,-2.91449 23.09531,-8.3171 24.67914,-11.27652 1.44657,-2.70294 0.79518,-3.68748 -1.5897,-2.40274 -3.57287,1.92471 -15.08734,6.04761 -21.41942,7.66948 -15.64652,4.00766 -21.44501,5.62871 -21.95381,6.13751 -0.29878,0.29879 0.29062,1.15298 1.30979,1.89821 2.23696,1.6357 6.62506,1.16717 18.974,-2.02594 z m -15.58497,-3.6576 c 9.82953,-1.88093 20.26447,-4.74801 25.5916,-7.03148 2.4613,-1.05504 4.98372,-1.91825 5.60538,-1.91825 0.62167,0 2.78527,-0.84375 4.80801,-1.875 2.02274,-1.03125 4.22131,-1.875 4.88572,-1.875 1.49736,0 1.55595,-1.15208 0.13107,-2.57696 -0.81094,-0.81094 -1.69103,-0.75941 -3.56304,0.20865 -2.7958,1.44576 -14.52148,5.2081 -23.01625,7.38507 -3.09375,0.79283 -10.6875,1.92625 -16.875,2.5187 -6.1875,0.59244 -11.39771,1.22064 -11.57826,1.39598 -0.74271,0.72136 1.20644,2.58394 3.95643,3.78069 1.61388,0.70234 2.93433,1.29342 2.93433,1.31352 0,0.0201 3.20401,-0.57658 7.12001,-1.32592 z M 41.300468,316.2996 c 2.864574,-3.00389 7.337302,-5.51468 17.527657,-9.83928 3.691339,-1.56652 3.927178,-2.71032 0.558844,-2.71032 -2.416359,0 -12.117856,4.89041 -17.52522,8.83426 -2.700077,1.96929 -6.002902,7.10324 -4.569731,7.10324 0.427718,0 2.23152,-1.52455 4.00845,-3.3879 z m 65.029102,2.81885 c 2.58013,-0.99009 1.60636,-2.24345 -1.74299,-2.24345 -3.15491,0 -4.819799,1.01677 -3.6236,2.21299 0.75731,0.7573 3.4329,0.77249 5.36659,0.0305 z m 72.47335,-4.78362 c 0.84342,-1.27024 0.96919,-2.17752 0.35454,-2.55739 -0.52393,-0.32382 -1.63844,0.73752 -2.47669,2.3585 -1.73854,3.36196 -0.0812,3.5173 2.12216,0.19889 z m -67.24042,1.20089 c 0,-0.22099 -0.66294,-1.06474 -1.47322,-1.875 -1.84576,-1.84577 -7.30063,-1.92094 -8.79428,-0.12119 -0.94617,1.14006 -0.41299,1.40753 3.40083,1.70602 2.48761,0.19469 5.05026,0.43003 5.69479,0.52297 0.64454,0.0929 1.17188,-0.0118 1.17188,-0.2328 z m 17.76286,-0.58783 c 15.70381,-1.43483 30.69562,-5.27466 38.95589,-9.97771 2.0625,-1.1743 4.48828,-2.14018 5.39062,-2.14638 0.90235,-0.007 1.64063,-0.63087 1.64063,-1.38813 0,-1.56406 -0.97234,-1.34031 -7.96875,1.83377 -8.81583,3.99949 -17.06759,5.81617 -34.21875,7.53348 -4.29874,0.43042 -11.88778,1.36971 -15.66047,1.93828 -2.15257,0.32441 -2.855,0.84163 -2.47782,1.82453 0.62826,1.63723 0.60823,1.6367 14.33865,0.38216 z m -45.740348,-6.167 c -0.318612,-5.70337 0.647978,-7.95779 2.45405,-5.72369 0.516456,0.63885 0.940585,2.42717 0.942508,3.97405 0.0084,6.76369 0.107955,7.03125 2.615994,7.03125 2.325582,0 2.405048,-0.18896 2.266969,-5.39063 C 91.649174,300.55897 91.748705,300 93.408679,300 c 1.266783,0 1.437933,0.69857 0.983462,4.01424 -0.577885,4.21617 0.74055,8.1767 2.966578,8.9115 1.003903,0.33139 1.155403,-0.71749 0.7341,-5.08221 -0.291985,-3.02487 -0.544922,-6.57054 -0.562097,-7.87924 -0.01716,-1.3087 -1.191263,-3.76507 -2.609091,-5.4586 -2.17356,-2.5962 -3.633127,-3.27963 -9.305941,-4.3574 -3.700433,-0.70304 -9.012173,-2.35882 -11.803868,-3.67949 -5.309357,-2.51173 -16.084743,-9.18188 -18.499322,-11.45139 -2.225947,-2.09222 -9.742179,-6.85656 -10.846561,-6.87535 -0.551545,-0.009 -1.919849,-1.07175 -3.040674,-2.36081 -1.120826,-1.28906 -2.573428,-2.34375 -3.228007,-2.34375 -0.654578,0 -1.606587,-0.94922 -2.115576,-2.10938 -0.508987,-1.16015 -1.874651,-2.24418 -3.034807,-2.40895 -2.311144,-0.32824 -2.335843,-0.36315 -1.604655,-2.2686 0.321364,-0.83746 1.455605,-1.17572 3.122199,-0.93111 2.339001,0.34329 2.963474,-0.19819 5.869557,-5.08952 4.168855,-7.01675 6.030469,-11.80946 6.860079,-17.66119 0.365505,-2.57813 1.264492,-5.62188 1.99775,-6.76389 0.733257,-1.14202 1.333195,-2.72405 1.333195,-3.51563 0,-2.15279 1.6365,-1.73726 3.328573,0.84517 0.823239,1.25642 2.83687,2.57666 4.474737,2.93387 1.637867,0.35721 4.166152,1.64591 5.618411,2.86379 1.452258,1.21786 4.932727,2.88069 7.734375,3.69515 6.74518,1.96088 6.580146,3.41261 -0.296721,2.61012 -5.492679,-0.64095 -10.546875,-3.36347 -10.546875,-5.68124 0,-0.91292 -1.381403,-1.20864 -5.081125,-1.08775 l -5.081126,0.16604 -1.11859,5.71719 c -0.615225,3.14445 -1.340115,7.19205 -1.610866,8.99467 -0.270751,1.80262 -1.093925,4.19572 -1.829276,5.31801 -0.735351,1.12229 -1.570408,4.30201 -1.855683,7.06606 -0.448173,4.34237 -0.216961,5.3926 1.700868,7.72586 3.143795,3.82477 9.575365,9.89383 10.484809,9.89383 0.421351,0 2.109038,0.98347 3.750416,2.18547 6.239549,4.56934 20.638729,10.64665 28.055466,11.84109 6.05786,0.97559 10.085107,3.03237 10.085107,5.15063 0,0.7268 0.849694,1.59113 1.8882,1.92075 2.56004,0.81252 25.35206,0.20014 25.90594,-0.69605 0.39879,-0.64526 -2.37656,-0.80217 -19.35664,-1.0944 -2.83594,-0.0488 -5.26538,-0.51062 -5.39878,-1.02624 -0.15044,-0.58154 5.90088,-1.16329 15.9375,-1.53217 8.89902,-0.32706 17.65381,-1.06534 19.45509,-1.64062 1.80129,-0.57528 4.76611,-1.04596 6.58851,-1.04596 4.43366,0 15.84451,-3.80731 23.72017,-7.91441 3.51794,-1.83458 7.2738,-3.33559 8.34637,-3.33559 1.8909,0 1.93248,-0.30839 1.36909,-10.15516 -0.59941,-10.47628 -1.15783,-13.28234 -2.64324,-13.28234 -0.4742,0 -0.80195,3.53587 -0.72834,7.85748 0.0736,4.3216 -0.2377,8.52138 -0.6918,9.33281 -0.51298,0.91665 -0.81133,-2.50265 -0.78787,-9.02934 0.0337,-9.34806 -0.20734,-10.9459 -2.1885,-14.51169 -1.22446,-2.20384 -2.97889,-6.4927 -3.89875,-9.53078 -0.91986,-3.03809 -2.603,-6.50838 -3.74031,-7.71176 -1.1373,-1.20339 -2.70905,-3.77 -3.49277,-5.7036 -0.78373,-1.93359 -1.73235,-3.51562 -2.10807,-3.51562 -1.54445,0 -8.16343,-7.26342 -9.39753,-10.3125 -0.73044,-1.80469 -1.56296,-3.49219 -1.85005,-3.75 -1.76286,-1.58311 -6.36345,-11.24273 -6.78731,-14.251 -0.19892,-1.41176 0.24525,-2.21688 1.34346,-2.43525 1.06055,-0.21088 1.64063,0.25243 1.64063,1.31037 0,2.54909 3.14796,8.76226 4.45312,8.78919 0.83102,0.0172 1.15113,-1.81641 1.10055,-6.30394 -0.0899,-7.97786 -1.72078,-12.78605 -4.47454,-13.19202 -1.12444,-0.16578 -1.82966,-0.64891 -1.56716,-1.07364 0.26249,-0.42474 -0.17504,-1.02255 -0.9723,-1.32849 -0.96745,-0.37125 -1.23635,-0.17007 -0.80851,0.60489 0.35257,0.63862 -0.6394,-0.31542 -2.20437,-2.12011 l -2.8454,-3.28125 -2.26049,2.10937 c -1.24328,1.16016 -2.56994,2.10938 -2.94817,2.10938 -0.37821,0 -1.61665,1.0631 -2.75208,2.36244 -2.87869,3.29428 -19.20956,9.82506 -24.56857,9.82506 -2.318017,0 -4.21458,-0.42188 -4.21458,-0.9375 0,-0.51563 1.898437,-0.9375 4.21875,-0.9375 5.00198,0 5.6856,-1.30117 0.8646,-1.64565 -3.792113,-0.27096 -6.95835,-1.69883 -6.95835,-3.13801 0,-0.60559 0.789319,-0.68094 2.109375,-0.20139 3.945755,1.43342 15.914085,0.84698 20.859375,-1.0221 5.94138,-2.24557 9.84375,-4.95465 9.84375,-6.83368 0,-0.80474 1.47656,-3.09755 3.28125,-5.09512 3.15832,-3.49589 4.2509,-6.43905 2.39033,-6.43905 -0.49,0 -1.22828,0.5506 -1.64062,1.22357 -2.15094,3.51045 -10.59346,7.90585 -10.59346,5.51524 0,-0.92052 5.19817,-4.86381 6.41161,-4.86381 1.78604,0 7.64575,-8.39139 8.75451,-12.53688 0.9089,-3.39832 0.91331,-6.35561 0.0207,-13.93532 -1.79242,-15.22114 -7.24636,-28.47692 -14.48548,-35.20688 l -2.31032,-2.14783 -1.56089,2.3822 c -0.85846,1.31022 -2.44277,2.38221 -3.52066,2.38221 -1.64428,0 -1.89333,-0.45279 -1.547,-2.8125 0.45658,-3.11092 -0.58252,-3.726187 -1.95668,-1.15855 -0.61055,1.14084 -0.47537,2.21438 0.43576,3.46043 0.72652,0.99357 1.33436,2.67507 1.35075,3.73668 0.0414,2.68147 1.71972,4.54315 5.82957,6.46658 1.93359,0.90494 3.51562,2.04741 3.51562,2.53885 0,1.29306 -0.73908,1.125 -4.60311,-1.0467 l -3.45215,-1.94022 -4.98654,3.35568 c -8.38692,5.64399 -11.750397,5.50673 -11.167112,-0.45572 0.428934,-4.38461 2.646412,-4.80684 2.646412,-0.5039 0,4.07589 1.70357,4.45089 2.48438,0.54687 0.42207,-2.11036 1.0815,-2.8125 2.64143,-2.8125 2.83436,0 6.10075,-5.85326 4.58554,-8.21714 -0.79303,-1.23721 -2.05699,-1.5543 -5.27984,-1.32457 -4.69738,0.33485 -6.855247,-1.29955 -2.99496,-2.26842 1.74528,-0.43804 2.16111,-0.90471 1.44459,-1.62123 -1.31544,-1.31544 -1.27983,-4.629727 0.0819,-7.618281 1.16028,-2.54655 2.17451,-2.997602 3.15889,-1.404836 0.41339,0.66886 1.04194,0.622509 1.96678,-0.145037 2.22281,-1.844767 -2.63708,-6.024503 -13.179763,-11.335223 -7.992711,-4.026212 -10.618979,-4.85995 -18.563082,-5.893049 -5.598516,-0.728067 -10.437902,-0.893275 -12.252649,-0.418284 -1.649679,0.431786 -4.897854,1.283668 -7.218166,1.893072 -2.320313,0.609404 -4.686108,1.225307 -5.257322,1.368675 -0.571215,0.14337 -1.298949,1.562554 -1.617187,3.153747 -0.647584,3.237917 -2.78445,4.038279 -2.325045,0.870844 0.993431,-6.849359 -7.920763,3.735064 -13.229805,15.708635 -3.580854,8.075967 -5.516071,16.313597 -3.832453,16.313597 1.230808,0 0.482967,4.7544 -0.880377,5.597 -0.837673,0.5177 -0.880116,0.91832 -0.145401,1.37239 1.551557,0.95892 1.251675,2.42892 -0.36866,1.80714 -2.498405,-0.95874 -1.490472,1.1936 1.171875,2.50241 l 2.578125,1.26741 -2.34375,0.43244 -2.34375,0.43245 2.326735,0.59825 c 3.019724,0.77644 3.795226,5.67801 0.898347,5.67801 -1.980749,0 -2.555096,1.78779 -0.646957,2.01381 0.644531,0.0763 1.804687,0.22482 2.578125,0.32994 0.773437,0.10512 2.439844,0.2536 3.703125,0.32994 3.006254,0.18168 1.430123,1.73934 -2.296875,2.26995 -2.23745,0.31856 -1.997845,0.42914 1.171875,0.54089 2.533129,0.0893 3.984375,0.57633 3.984375,1.33712 0,0.82307 -1.243871,1.11655 -3.984375,0.94007 -3.039138,-0.19571 -3.539558,-0.0504 -2.109375,0.61245 1.03125,0.47798 2.824219,0.8987 3.984375,0.93493 1.160156,0.0363 2.109375,0.44264 2.109375,0.9031 0,1.29777 -2.547203,1.9753 -7.426193,1.9753 -3.883801,0 -4.602668,0.31237 -5.561434,2.41663 -0.948216,2.08111 -0.754236,3.03369 1.39714,6.86089 1.374027,2.44433 3.594771,5.1542 4.934984,6.02193 1.340215,0.86773 3.702378,2.38942 5.249253,3.38156 1.546875,0.99213 5.015952,2.19761 7.709061,2.67885 6.392852,1.14235 8.050186,-0.38086 7.5999,-6.98484 -0.404332,-5.93 1.255561,-6.35076 2.705551,-0.68582 0.998983,3.9029 0.927469,4.86522 -0.57989,7.80324 -0.94567,1.84322 -2.097703,4.60636 -2.560073,6.14031 -0.706057,2.34241 -1.473799,2.89708 -4.794601,3.46398 -5.132088,0.87612 -9.859802,3.15075 -15.868814,7.63495 -8.168775,6.09589 -12.079261,13.32311 -12.775975,23.61207 -0.269373,3.97806 -1.619979,9.88536 -3.429503,15 -3.516531,9.93952 -4.627904,14.59657 -4.683577,19.62589 -0.02245,2.02861 -0.902677,5.46872 -1.956047,7.64469 -1.053369,2.17597 -2.3742883,6.42484 -2.9353746,9.44193 -0.9977671,5.36522 -0.954638,5.58269 1.9651046,9.90892 1.641893,2.43284 3.418881,4.69132 3.948861,5.01886 0.52998,0.32755 1.667687,1.74802 2.528238,3.15659 2.03511,3.33114 12.309938,12.00456 18.058217,15.24372 4.61908,2.60284 14.875392,5.77147 18.150716,5.60755 1.007487,-0.0504 2.291467,0.28982 2.853289,0.75609 0.561823,0.46628 3.464087,0.76294 6.449476,0.65926 4.898998,-0.17013 5.648775,0.0679 7.693586,2.4419 2.260344,2.6243 3.105269,7.21335 1.328105,7.21335 -0.515625,0 -0.9375,-0.63281 -0.9375,-1.40625 0,-0.77344 -0.643646,-1.40625 -1.430325,-1.40625 -2.34118,0 0.976733,5.47543 3.737843,6.16843 3.406014,0.85485 4.254982,-0.18884 4.254982,-5.23093 0,-4.71035 0.689501,-5.99959 2.582841,-4.82944 1.164174,0.71951 1.023295,6.95385 -0.222041,9.82603 -0.636783,1.46864 -0.354422,1.67089 1.963351,1.40625 2.697372,-0.30798 2.705945,-0.32975 2.385861,-6.05945 z m 68.055608,-38.54582 c -2.00606,-0.45553 -2.09749,-2.09038 -0.25218,-4.50901 1.20176,-1.57514 1.51494,-1.63074 2.32938,-0.41356 1.11286,1.66314 1.26213,4.42747 0.26655,4.93598 -0.38671,0.19753 -1.4414,0.19149 -2.34375,-0.0134 z M 89.291033,171.87716 c -0.647743,-0.26114 -0.974219,-0.80407 -0.7255,-1.2065 0.592701,-0.95901 5.184467,-0.0723 5.184467,1.00113 0,0.88043 -2.499057,0.99554 -4.458967,0.20537 z m 10.391926,-7.36667 c -4.25295,-3.35241 -6.331232,-9.38087 -5.565946,-16.14512 1.181334,-10.44157 2.72099,-15.76017 4.282912,-14.79484 0.843291,0.52118 0.711619,1.15019 -1.476778,7.05447 -0.286669,0.77344 -0.719025,4.65552 -0.960788,8.62686 -0.358031,5.88109 -0.125812,7.70723 1.251769,9.84375 2.275153,3.52857 5.078702,5.83532 7.138082,5.8732 0.93277,0.0172 1.43522,0.45306 1.11654,0.96869 -0.9258,1.49797 -2.59846,1.08543 -5.785791,-1.42701 z M 44.53125,163.39251 c -6.479946,-1.56381 -9.84375,-5.0341 -9.84375,-10.15537 0,-3.17103 1.231304,-2.87754 3.135069,0.74723 1.458144,2.77632 1.55709,2.82662 1.114258,0.5665 -0.328083,-1.67448 -0.03125,-2.65489 0.913593,-3.01746 0.769769,-0.29539 1.39958,-0.12843 1.39958,0.37101 0,0.49944 1.026259,0.90808 2.280574,0.90808 1.45379,0 2.495353,0.67671 2.873013,1.86661 0.87005,2.74129 -0.0099,3.50061 -3.468582,2.99298 -2.731978,-0.40097 -2.943873,-0.28269 -1.851497,1.03355 0.678453,0.81749 2.470025,1.75791 3.981271,2.08984 1.511247,0.33192 2.747721,1.20279 2.747721,1.93526 0,1.3808 -0.164392,1.41395 -3.28125,0.66177 z m 59.73985,-1.72692 c -4.586097,-3.21223 -1.49625,-17.73371 5.19766,-24.42763 3.34145,-3.34144 10.88616,-5.8771 13.18061,-4.4298 0.81141,0.51182 2.27936,2.00756 3.26212,3.32386 2.60788,3.49298 1.41439,7.11115 -4.31976,13.09564 -2.68014,2.79715 -5.92767,6.64001 -7.21673,8.53969 -1.78799,2.63493 -5.80273,5.35765 -7.90005,5.35765 -0.0661,0 -1.05788,-0.65674 -2.20385,-1.45941 z m 9.35513,-6.89534 c -0.46064,-0.30333 -1.12147,-1.71166 -1.46849,-3.12963 -0.78979,-3.2271 -2.47024,-3.37789 -2.47024,-0.22165 0,3.50582 1.95206,6.24666 3.52137,4.94425 0.69019,-0.57281 0.878,-1.28964 0.41736,-1.59297 z m 1.37903,-6.57783 c -0.72082,-1.71435 -1.53549,-2.74725 -1.81037,-2.29533 -0.27487,0.45191 0.18293,2.50916 1.01733,4.57166 0.84549,2.08987 1.64694,3.10601 1.81037,2.29533 0.1613,-0.80007 -0.29649,-2.85731 -1.01733,-4.57166 z M 120,145.36783 c 0,-2.1416 -1.47808,-3.33101 -2.36204,-1.90072 -0.78754,1.27424 0.12975,3.72039 1.39512,3.72039 0.53181,0 0.96692,-0.81885 0.96692,-1.81967 z m -5.95072,-2.43376 c 0.30411,-0.7925 1.78123,-2.07609 3.28248,-2.85242 1.50125,-0.77632 2.4572,-1.85217 2.12433,-2.39076 -0.40707,-0.65866 -0.91491,-0.66957 -1.55114,-0.0334 -0.52027,0.52027 -1.49882,0.73376 -2.17457,0.47445 -1.02822,-0.39456 -4.16788,3.9201 -4.16788,5.7277 0,1.14964 1.97211,0.4156 2.48678,-0.92563 z M 76.875,154.43032 c 0,-2.37581 0.45448,-4.60055 1.009956,-4.94385 0.701525,-0.43357 0.807992,0.76632 0.348627,3.92905 -0.869029,5.98325 -1.358583,6.34892 -1.358583,1.0148 z M 71.25,130.39739 c 0.773437,-0.43757 2.457629,-1.11841 3.742648,-1.51297 2.091634,-0.64223 2.202375,-0.5559 1.057083,0.8241 -0.703623,0.84781 -2.387814,1.52865 -3.742648,1.51297 -1.836248,-0.0212 -2.105348,-0.23104 -1.057083,-0.8241 z m 26.345709,-1.49114 c 0.07941,-2.06256 1.484475,-4.51672 2.056285,-3.59152 0.330244,0.53435 -0.0056,1.77197 -0.74596,2.75028 -0.740521,0.97831 -1.330172,1.35686 -1.310325,0.84124 z M 63.75,126.67184 c 0,-0.45548 0.84375,-1.0488 1.875,-1.31848 2.213971,-0.57896 2.544646,0.75156 0.392075,1.57759 C 64.04906,127.68615 63.75,127.65197 63.75,126.67184 Z m 15.46875,0.14387 c -1.546875,-0.22184 -3.65625,-1.17942 -4.6875,-2.12796 -1.989689,-1.83009 -9.024627,-2.65822 -11.993557,-1.41183 -2.381588,0.9998 -3.204104,-0.23818 -1.154153,-1.73714 1.033197,-0.75549 1.427038,-1.72094 0.990302,-2.42759 -0.564268,-0.91301 -0.297778,-0.94456 1.20139,-0.14222 1.059577,0.56706 3.279848,1.03103 4.933936,1.03103 3.869267,0 15.889421,-3.54219 17.814652,-5.24977 0.814037,-0.722 1.954888,-1.31273 2.535223,-1.31273 1.424996,0 0.568699,6.37964 -1.189959,8.8655 -2.753416,3.89195 -3.989942,5.19357 -4.803687,5.05653 -0.45878,-0.0773 -2.099772,-0.32197 -3.646647,-0.54382 z m 2.168539,-5.17508 C 81.616248,120.43934 81.08469,120 79.402283,120 c -2.735356,0 -5.17755,2.34052 -3.269537,3.13342 2.237012,0.92961 4.939159,0.16195 5.254543,-1.49279 z M 86.25,118.125 c 0,-0.51562 -0.186039,-0.9375 -0.413422,-0.9375 -0.227382,0 -0.674154,0.42188 -0.992828,0.9375 -0.318674,0.51563 -0.132634,0.9375 0.413422,0.9375 0.546055,0 0.992828,-0.42187 0.992828,-0.9375 z M 75,109.17533 c -0.773438,-0.17308 -4.695993,-0.5884 -8.716791,-0.92295 -6.492207,-0.54018 -7.174334,-0.77251 -6.09375,-2.07555 1.533348,-1.849 6.581571,-3.99096 9.389804,-3.9841 1.176719,0.003 3.702666,0.43937 5.613218,0.97 2.519863,0.69985 3.323958,1.35507 2.928299,2.38614 -0.543643,1.41671 0.557251,1.37762 6.488595,-0.23043 1.624305,-0.44037 2.42252,1.93344 0.9375,2.78803 -1.083692,0.62364 -8.966443,1.4225 -10.546875,1.06886 z M 74.495096,105.879 c -0.298788,-0.48345 -2.522261,-0.87254 -4.941049,-0.86465 -2.853964,0.009 -3.946599,0.30018 -3.112505,0.82856 1.74988,1.10849 8.735685,1.1398 8.053554,0.0361 z m 19.763113,-3.54776 c -1.52517,-0.75371 -4.145315,-1.3188 -5.822544,-1.25575 -4.378191,0.16459 -4.599254,-1.222628 -0.414901,-2.603593 2.679824,-0.884419 4.076273,-0.919041 5.537032,-0.13726 2.743723,1.468388 3.105288,0.268285 1.929767,-6.405232 -0.753825,-4.279563 -0.747404,-6.107065 0.02419,-6.878655 0.775997,-0.776 1.05075,-0.342351 1.05075,1.658442 0,1.490055 0.499969,5.129823 1.11105,8.08837 0.713953,3.45661 0.797719,6.009098 0.234375,7.141618 -0.805181,1.61871 -1.102819,1.65068 -3.649716,0.39206 z M 199.10715,305.04459 c 0.34864,-4.95984 1.04372,-9.78367 1.54462,-10.71962 2.1722,-4.05879 0.4232,-20.30044 -2.53849,-23.57308 -0.93954,-1.03816 -1.20352,-2.22104 -0.73537,-3.29509 0.40167,-0.92156 0.6519,-2.30836 0.55606,-3.0818 -0.43385,-3.50136 -1.1612,-5.625 -1.92656,-5.625 -0.45753,0 -0.61299,0.83698 -0.34549,1.85995 0.752,2.87563 -0.47539,6.392 -2.44985,7.01867 -1.65129,0.52409 -1.6808,0.77212 -0.39792,3.34374 0.76212,1.5277 1.77665,2.77764 2.25451,2.77764 0.47786,0 0.86884,0.42188 0.86884,0.9375 0,1.80464 -2.6108,0.91622 -4.13254,-1.40625 -1.95229,-2.97956 -4.16652,-2.9512 -7.05284,0.0903 -1.88202,1.98323 -2.04536,2.54962 -0.9375,3.2507 0.7379,0.46696 1.59332,0.85548 1.90094,0.86337 1.29014,0.0331 7.39699,6.77604 6.88586,7.60308 -1.04453,1.69007 -1.13205,20.05295 -0.11354,23.81752 1.07876,3.98719 2.06538,5.11879 4.48312,5.1419 1.23146,0.0117 1.61651,-1.61115 2.13615,-9.00355 z m 2.13874,5.97103 c -0.26007,-0.64453 -0.47287,-0.11718 -0.47287,1.17188 0,1.28906 0.2128,1.81641 0.47287,1.17187 0.26007,-0.64453 0.26007,-1.69921 0,-2.34375 z M 36.5625,310.83658 c 0,-0.74301 -0.421875,-1.61166 -0.9375,-1.93033 -0.515625,-0.31867 -0.9375,0.28924 -0.9375,1.35092 0,1.06168 0.421875,1.93033 0.9375,1.93033 0.515625,0 0.9375,-0.60791 0.9375,-1.35092 z M 33.75,309.84375 c 0,-0.77344 -0.421875,-1.40625 -0.9375,-1.40625 -0.515625,0 -0.9375,0.63281 -0.9375,1.40625 0,0.77344 0.421875,1.40625 0.9375,1.40625 0.515625,0 0.9375,-0.63281 0.9375,-1.40625 z m 8.499016,-0.0742 c 0.675729,-0.81421 3.575042,-2.69235 6.442917,-4.17365 4.085128,-2.11004 4.706765,-2.6939 2.870567,-2.6961 -1.289063,-0.002 -3.451337,0.50551 -4.805054,1.12678 -2.598584,1.19263 -8.319946,5.79592 -8.319946,6.69411 0,1.11852 2.640773,0.45956 3.811516,-0.9511 z m 82.438484,0.0358 c 2.83594,-0.32025 6.42187,-0.71536 7.96875,-0.87802 18.3654,-1.93114 26.45019,-3.80115 36.09375,-8.34844 6.35908,-2.99854 8.80449,-4.85168 8.03828,-6.09143 -0.3635,-0.58816 -2.80846,0.0432 -6.422,1.65846 -5.85641,2.61775 -17.03723,5.52492 -29.27253,7.61126 -3.60938,0.61546 -9.51563,1.67515 -13.125,2.35487 -3.60937,0.67971 -8.53108,1.16459 -10.93712,1.07749 -4.92517,-0.17827 -6.26412,0.56664 -4.60716,2.56314 0.69896,0.8422 2.26783,1.22233 4.11796,0.99775 1.64385,-0.19955 5.30913,-0.62482 8.14507,-0.94508 z m 67.03125,0.5071 c 0.31868,-0.51563 -0.0278,-0.9375 -0.76999,-0.9375 -1.11476,0 -1.28915,-1.83389 -1.00291,-10.54688 0.36833,-11.21174 -0.11484,-15.70312 -1.68929,-15.70312 -0.61632,0 -0.74121,1.52199 -0.34288,4.17831 0.34462,2.29806 0.62049,8.00327 0.61306,12.67825 -0.007,4.67496 0.22553,9.12286 0.51768,9.88419 0.61324,1.59807 1.83648,1.80242 2.67433,0.44675 z M 107.8125,309.375 c 0,-0.51563 -1.29053,-0.9375 -2.86783,-0.9375 -1.67316,0 -2.62646,0.39054 -2.28842,0.9375 0.31868,0.51562 1.6092,0.9375 2.86783,0.9375 1.25863,0 2.28842,-0.42188 2.28842,-0.9375 z m 74.47686,0.088 c 0.28876,-0.46722 1.32181,-0.64112 2.29566,-0.38645 1.5686,0.4102 1.8454,-0.28119 2.42561,-6.0588 0.57551,-5.73056 -0.52351,-18.49513 -1.95262,-22.67898 -0.86616,-2.53575 -2.21558,1.00072 -2.23116,5.84725 -0.0127,3.95032 -0.54587,6.69113 -3.72111,19.12827 -0.92912,3.6393 1.52329,6.83516 3.18362,4.14871 z m -47.75811,-6.20294 c 4.64062,-0.86734 10.33594,-1.92546 12.65625,-2.35137 9.64495,-1.77041 15.82335,-3.57261 21.86228,-6.37707 3.51644,-1.63303 6.78598,-2.96915 7.26563,-2.96915 0.47965,0 0.87209,-0.63281 0.87209,-1.40625 0,-0.77344 -0.41333,-1.40625 -0.91853,-1.40625 -0.87704,0 -6.82044,2.08555 -10.80022,3.78983 -3.75762,1.60913 -16.26669,4.68344 -22.58422,5.55043 -3.56305,0.48898 -11.54078,1.71141 -17.72828,2.71652 -6.1875,1.0051 -13.70429,1.82576 -16.70397,1.82369 -5.76783,-0.004 -6.84103,0.36618 -5.82549,2.00937 0.89917,1.45488 21.50624,0.56371 31.90446,-1.37975 z m -88.055062,-1.49826 c 0.280208,-0.45338 -0.570117,-0.82433 -1.88961,-0.82433 -1.436535,0 -2.399078,0.52899 -2.399078,1.31848 0,1.40683 3.352559,1.02054 4.288688,-0.49415 z M 131.25,298.16966 c 2.83594,-0.52853 9.01676,-1.58195 13.73516,-2.34094 10.04301,-1.61548 32.20234,-9.43421 32.20234,-11.36232 0,-1.28445 -2.18152,-0.95306 -4.27988,0.65015 -1.6857,1.28792 -18.24575,6.44595 -20.69497,6.44595 -1.26817,0 -3.50737,0.62137 -4.97599,1.38082 -5.33565,2.75918 -15.12794,3.88335 -39.58131,4.54404 -6.18366,0.16707 -7.975953,0.72981 -7.0575,2.21589 0.58042,0.93915 23.55069,-0.2101 30.65215,-1.53359 z m 10.3125,-5.43775 c 3.47624,-1.00326 4.55027,-1.62507 3.29638,-1.90848 -2.63865,-0.59638 -14.05106,1.57643 -16.08267,3.06198 -1.47645,1.07961 -1.08312,1.18441 2.96383,0.78971 2.56642,-0.2503 6.98652,-1.12474 9.82246,-1.94321 z m 22.34253,-6.46256 c 8.44213,-2.91317 15.59738,-7.09519 13.04917,-7.62685 -0.90175,-0.18813 -4.06581,1.12653 -7.03125,2.9215 -2.96543,1.79495 -7.60654,3.98372 -10.31358,4.86393 -4.73555,1.53981 -6.05191,2.32207 -3.90747,2.32207 0.55792,0 4.24933,-1.11629 8.20313,-2.48065 z m 46.07692,-8.96223 c 2.3682,-5.28954 1.43052,-6.2603 -2.43138,-2.51719 -3.33615,3.23352 -3.95947,5.05001 -2.0037,5.83918 2.25659,0.91055 2.68318,0.59103 4.43508,-3.32199 z M 206.25,272.75717 c 0,-0.4852 -0.84375,-0.88217 -1.875,-0.88217 -2.06817,0 -2.55316,1.47548 -0.70313,2.13911 1.41807,0.50868 2.57813,-0.0569 2.57813,-1.25694 z m -13.13935,-9.70448 c -0.0465,-3.3096 -2.36641,-3.90919 -7.63293,-1.97279 -0.69243,0.2546 -1.83081,0.0985 -2.52973,-0.34682 -1.04711,-0.6672 -0.98688,-1.24296 0.34219,-3.2714 0.88713,-1.35392 2.35654,-2.46168 3.26535,-2.46168 0.90882,0 2.17757,-0.63281 2.81947,-1.40625 1.59337,-1.91989 3.07525,-1.76449 4.46993,0.46875 0.64403,1.03125 1.77923,1.875 2.52268,1.875 0.74344,0 1.73901,0.69204 2.21236,1.53787 0.92059,1.64502 2.98253,0.99532 2.98253,-0.93975 0,-0.64143 -1.30212,-2.93685 -2.8936,-5.10093 -2.65018,-3.60367 -3.24643,-3.93469 -7.08755,-3.93469 -3.12103,0 -5.3433,0.75244 -8.68676,2.94126 l -4.49283,2.94126 1.73662,5.57977 c 0.95514,3.06887 1.73662,7.44018 1.73662,9.71401 l 0,4.13424 5.625,-4.36821 c 3.09375,-2.40251 5.61854,-4.82785 5.61065,-5.38964 z m 16.82345,2.43885 c 0.037,-1.21693 -0.34457,-1.91101 -0.8716,-1.58529 -0.51563,0.31867 -0.90785,2.13654 -0.8716,4.03971 0.0531,2.78875 0.22225,3.09641 0.8716,1.58529 0.44315,-1.03125 0.83537,-2.84912 0.8716,-4.03971 z m -3.91283,0.62884 c 0.86615,-3.3426 -0.6856,-11.71805 -1.83576,-9.90839 -0.39561,0.62247 -0.72576,2.68889 -0.73366,4.59205 -0.008,1.90317 -0.43622,3.72104 -0.95185,4.03971 -1.73299,1.07105 -1.0535,4.21875 0.9107,4.21875 1.28468,0 2.08064,-0.89704 2.61057,-2.94212 z M 172.43052,243.46291 C 171.90464,241.55831 171.07232,240 170.58094,240 c -1.2022,0 -1.1461,0.34406 0.68083,4.17518 1.95808,4.10612 2.42124,3.82387 1.16875,-0.71227 z m -2.74302,-6.68883 c 0,-0.22738 -0.42188,-0.67415 -0.9375,-0.99283 -0.51563,-0.31868 -0.9375,-0.13264 -0.9375,0.41342 0,0.54605 0.42187,0.99283 0.9375,0.99283 0.51562,0 0.9375,-0.18604 0.9375,-0.41342 z M 13.385886,227.28516 c 0.465752,-1.51466 1.707047,-4.65235 2.758434,-6.97266 1.294052,-2.85586 2.050195,-6.93113 2.340589,-12.61477 0.258805,-5.06535 0.954325,-9.14604 1.753285,-10.28671 2.196947,-3.13659 1.204897,-12.60707 -1.411988,-13.47937 -0.95488,-0.31829 -1.126244,0.19784 -0.677266,2.03987 0.330583,1.35629 0.871537,3.57567 1.20212,4.93196 0.448553,1.84029 0.277279,2.35805 -0.675026,2.04061 -0.701847,-0.23394 -1.739883,-2.29285 -2.306745,-4.57535 l -1.030659,-4.14999 -4.33,0.14681 c -5.3209884,0.18041 -9.3771339,2.75918 -8.6166506,5.47819 0.2884311,1.03125 1.5654765,7.57031 2.8378788,14.53125 1.2724023,6.96094 2.7068677,14.13281 3.187701,15.9375 0.4808332,1.80469 1.1280977,4.89037 1.4383661,6.85707 0.6500957,4.12077 2.2819387,4.17421 3.5299607,0.11559 z M 152.34375,211.875 c -0.31868,-0.51563 -0.97639,-0.9375 -1.46158,-0.9375 -0.4852,0 -0.88217,0.42187 -0.88217,0.9375 0,0.51562 0.65771,0.9375 1.46158,0.9375 0.80387,0 1.20085,-0.42188 0.88217,-0.9375 z M 32.8125,141.5625 c 0,-0.51563 -0.632813,-0.9375 -1.40625,-0.9375 -0.773438,0 -1.40625,0.42187 -1.40625,0.9375 0,0.51562 0.632812,0.9375 1.40625,0.9375 0.773437,0 1.40625,-0.42188 1.40625,-0.9375 z M 30,135.99283 c 0,-1.10612 -1.828457,-2.28937 -2.5,-1.61783 -0.671543,0.67155 0.51171,2.5 1.617828,2.5 C 29.603023,136.875 30,136.47802 30,135.99283 Z M 27.65625,127.5 c -0.318674,-0.51563 -1.398259,-0.9375 -2.399078,-0.9375 -1.00082,0 -1.819672,0.42187 -1.819672,0.9375 0,0.51562 1.079586,0.9375 2.399078,0.9375 1.360657,0 2.148287,-0.40579 1.819672,-0.9375 z m -1.951675,-3.38155 c 0.815609,-0.31298 1.482925,-0.94315 1.482925,-1.40037 0,-0.66805 -1.665492,-0.6589 -4.508453,0.0247 -0.380532,0.0915 0.768583,1.94467 1.205856,1.94467 0.18521,0 1.004062,-0.25607 1.819672,-0.56905 z M 20.625,120.07668 c 0,-0.98908 0.278154,-2.57111 0.618121,-3.51563 0.339967,-0.94452 0.32695,-1.45819 -0.02892,-1.1415 -1.158171,1.03064 -2.386127,6.45545 -1.461256,6.45545 0.479632,0 0.872057,-0.80925 0.872057,-1.79832 z m 6.5625,-2.88918 c 0,-0.51562 -1.079586,-0.9375 -2.399078,-0.9375 -1.360657,0 -2.148287,0.40579 -1.819672,0.9375 0.318674,0.51563 1.398259,0.9375 2.399078,0.9375 1.00082,0 1.819672,-0.42187 1.819672,-0.9375 z M 41.186963,82.5 c -0.002,-0.81557 -0.566176,-0.421783 -1.343213,0.9375 -1.761359,3.081176 -1.7812,4.604096 -0.02981,2.288559 C 40.570973,84.725164 41.188837,83.273437 41.186963,82.5 Z M 34.587101,6.796875 34.486702,1.40625 33.579082,5.4682368 c -0.499192,2.2340928 -0.67819,4.6598742 -0.397775,5.3906252 1.013682,2.641612 1.504247,1.224145 1.405794,-4.061987 z M 123.28125,460.3125 c 0.31868,-0.51563 1.50373,-0.93104 2.63346,-0.92315 1.6699,0.0117 1.79105,0.18432 0.64779,0.92315 -1.84699,1.19362 -4.01894,1.19362 -3.28125,0 z M 130.3125,457.5 c -1.02985,-0.66554 -0.33981,-0.91263 2.57812,-0.92315 2.19141,-0.007 3.98438,0.40752 3.98438,0.92315 0,1.19626 -4.71142,1.19626 -6.5625,0 z m -11.71875,-0.9375 c -0.35348,-0.57195 1.06557,-0.9375 3.63935,-0.9375 2.32031,0 4.47947,0.42187 4.79815,0.9375 0.35348,0.57195 -1.06557,0.9375 -3.63935,0.9375 -2.32031,0 -4.47947,-0.42188 -4.79815,-0.9375 z m 10.01299,-1.67959 c -5.20193,-0.18231 -7.68382,-0.62043 -7.45212,-1.3155 0.32642,-0.97929 15.59149,-1.19629 16.55249,-0.23531 0.21381,0.21382 0.85233,-0.20981 1.41894,-0.94139 0.78832,-1.01783 2.51601,-1.2044 7.35833,-0.79457 3.48046,0.29456 6.32812,0.95744 6.32812,1.47307 0,0.57902 -2.33015,0.75046 -6.09375,0.44835 -3.35156,-0.26903 -6.09375,-0.14011 -6.09375,0.28649 0,0.42661 1.79297,0.93541 3.98438,1.13068 4.437,0.39537 -4.02431,0.36797 -16.00264,-0.0519 z M 76.285268,438.98437 c 2.391581,-16.40319 2.093655,-56.82389 -0.44134,-59.87836 -0.487288,-0.58715 -2.24761,-1.37267 -3.911827,-1.7456 -1.664219,-0.37293 -4.713351,-1.06285 -6.775851,-1.53318 -2.0625,-0.47031 -8.8125,-1.46746 -15,-2.21586 -6.1875,-0.74841 -12.09375,-1.48041 -13.125,-1.62668 -1.502119,-0.21306 -1.892715,0.29338 -1.964077,2.54656 -0.216523,6.83648 -1.538548,20.91018 -2.245655,23.90625 -2.806442,11.89114 -5.634018,27.49639 -5.634018,31.09386 0,2.6416 0.03306,2.65614 6.038422,2.65614 3.321132,0 6.313144,0.44452 6.648916,0.98781 0.410394,0.66402 -1.387543,0.89173 -5.485351,0.69469 -3.352716,-0.1612 -5.897956,0.0271 -5.656089,0.41846 0.241868,0.39135 4.106267,0.70508 8.587555,0.69719 5.606834,-0.01 7.709245,-0.29777 6.741547,-0.92315 -0.990972,-0.64042 0.324075,-0.91303 4.453125,-0.92315 3.222656,-0.007 5.859375,0.1768 5.859375,0.41041 0,0.23363 -1.478771,1.12649 -3.286159,1.98416 -3.592546,1.70477 -16.780995,2.4256 -21.478119,1.17391 -3.50503,-0.93402 -7.136796,-0.0541 -6.510721,1.57739 0.503092,1.31104 -5.647839,2.26129 -17.006251,2.62728 -4.4555551,0.14357 -5.625,-0.11111 -5.625,-1.225 0,-1.56275 0.25713946,-1.61359 8.9359547,-1.76686 l 6.1234543,-0.10814 1.128059,-3.98438 c 0.620432,-2.1914 1.368903,-7.14843 1.663269,-11.01562 0.294365,-3.86719 1.326981,-11.25 2.294703,-16.40625 0.967722,-5.15625 2.241745,-15.07031 2.831163,-22.03125 0.589419,-6.96094 1.145184,-13.5 1.235034,-14.53125 0.151966,-1.74419 0.71931,-1.85162 8.132113,-1.5398 4.382812,0.18437 8.601562,0.66153 9.375,1.06037 2.403802,1.23957 15.085478,1.9059 16.979678,0.89216 1.323602,-0.70837 1.770322,-0.63233 1.770322,0.30136 0,1.23185 6.926656,2.95012 17.34375,4.30241 3.271221,0.42465 4.6875,1.03338 4.6875,2.01475 0,0.92024 -0.729018,1.30488 -2.109375,1.11294 -2.460556,-0.34213 -2.410789,-0.85242 -0.851605,8.73193 0.671156,4.12561 0.913474,8.64831 0.538487,10.05045 -0.374988,1.40213 -0.710716,6.46412 -0.746063,11.24888 -0.07919,10.71957 -1.002121,29.52194 -1.588983,32.37142 -0.756172,3.67157 -2.482505,2.41107 -1.925943,-1.40625 z M 25.298144,428.04181 c 0.01544,-2.94567 1.97693,-14.76415 4.213194,-25.38556 2.371796,-11.26511 3.035135,-16.25728 2.315025,-17.42244 -0.397227,-0.64274 -1.175613,1.24183 -1.816934,4.39899 -0.617092,3.0379 -1.466662,6.40953 -1.887932,7.49252 -0.421271,1.08299 -1.246115,6.14549 -1.832987,11.25 -0.586873,5.10451 -1.468434,11.31702 -1.959026,13.80558 -1.203034,6.10247 -1.176674,11.8978 0.04552,10.0066 0.499834,-0.77344 0.915248,-2.639 0.923144,-4.14569 z m -1.992429,-16.01056 c 0,-2.39777 -0.11881,-2.53601 -0.805715,-0.9375 -0.443143,1.03125 -0.805715,3.14062 -0.805715,4.6875 0,2.39777 0.11881,2.53601 0.805715,0.9375 0.443143,-1.03125 0.805715,-3.14063 0.805715,-4.6875 z m 6.210423,-32.93941 c 0.414345,-4.24738 0.303184,-6.90535 -0.304502,-7.28092 -1.528318,-0.94455 -1.752069,0.20536 -2.353525,12.09533 -0.539585,10.66688 -0.50236,11.00704 0.718185,6.5625 0.707998,-2.57813 1.580927,-7.69774 1.939842,-11.37691 z m 3.296362,-3.36592 c 0,-5.92944 -0.484698,-5.56412 -1.322418,0.99672 -0.433164,3.39244 -0.323108,4.8087 0.341749,4.39779 0.539368,-0.33335 0.980669,-2.76088 0.980669,-5.39451 z m 206.48437,59.55398 c -1.16015,-0.22567 -2.10937,-0.80284 -2.10937,-1.2826 0,-0.47977 4.18425,-0.8723 9.29832,-0.8723 8.97009,0 12.26916,0.46848 12.2597,1.74093 -0.005,0.68911 -16.25593,1.03502 -19.44865,0.41397 z M 0.83372722,432.42187 c -0.28081004,-1.90266 0.33794338,-5.80678 1.52296448,-9.60937 0.7230904,-2.32031 1.7813842,-8.64844 2.3517639,-14.0625 0.5703796,-5.41406 1.8043989,-13.64063 2.742265,-18.28125 0.937866,-4.64063 2.1756644,-11.17969 2.7506634,-14.53125 1.285283,-7.49168 1.867833,-83.68762 0.693462,-90.70313 -0.9836101,-5.87594 0.52543,-6.79217 2.31607,-1.40625 0.810658,2.43832 1.169612,10.84132 1.171389,27.42188 0.0043,40.60932 -1.560803,69.80707 -4.10004,76.48578 -0.5287419,1.39069 -1.567806,7.63703 -2.3090329,13.88075 -1.1977804,10.08949 -3.3331093,23.4157 -4.7107751,29.3991 -0.4529928,1.9674 -2.1968858,2.97713 -2.42872977,1.40625 z M 231.5625,430.3125 c 0,-0.58594 5.625,-0.9375 15,-0.9375 9.375,0 15,0.35156 15,0.9375 0,0.58594 -5.625,0.9375 -15,0.9375 -9.375,0 -15,-0.35156 -15,-0.9375 z m 3.75,-3.51007 c 0,-1.28739 3.27585,-2.08658 8.61654,-2.10213 2.41879,-0.008 4.65854,-0.43468 4.97721,-0.9503 0.97463,-1.57699 6.42514,-1.00326 8.90625,0.9375 l 2.34375,1.83331 -7.5,0.029 c -4.125,0.0159 -9.71484,0.29502 -12.42188,0.62017 -3.11434,0.37408 -4.92187,0.2391 -4.92187,-0.36755 z M 90,338.90625 c 0,-1.80469 0.409028,-3.28125 0.908952,-3.28125 0.499923,0 0.853442,1.47656 0.785597,3.28125 -0.06785,1.80469 -0.476873,3.28125 -0.908952,3.28125 C 90.353519,342.1875 90,340.71094 90,338.90625 Z"
     id="path37926"
     inkscape:connector-curvature="0" />
</svg>
