<?xml version="1.0" encoding="UTF-8" standalone="no"?>
<svg xmlns:svg="http://www.w3.org/2000/svg" xmlns="http://www.w3.org/2000/svg" version="1.0" width="2337.3491" height="1727.6071" xml:space="preserve">
<g >
<polygon points="2141.621,1125.305 2144.628,1126.809 2144.628,1130.305 2020.117,1202.307 2020.117,1195.305 2141.621,1125.305" />
<path d="M 8.0078125,0 L 8.0078125,-71.582031 L 17.480469,-71.582031 L 17.480469,-42.1875 L 54.6875,-42.1875 L 54.6875,-71.582031 L 64.160156,-71.582031 L 64.160156,0 L 54.6875,0 L 54.6875,-33.740234 L 17.480469,-33.740234 L 17.480469,0 L 8.0078125,0 z M 79.882813,0 L 79.882813,-71.582031 L 89.599609,-71.582031 L 127.19727,-15.380859 L 127.19727,-71.582031 L 136.2793,-71.582031 L 136.2793,0 L 126.5625,0 L 88.964844,-56.25 L 88.964844,0 L 79.882813,0 z" transform="translate(2035.123,1021.809)" />
<polygon points="2141.621,1037.805 2147.617,1037.805 2147.617,1125.305 2144.628,1126.809 2141.621,1125.305 2141.621,1037.805" />
<polygon points="2266.621,909.309 2272.617,912.307 2193.613,958.303 2190.625,952.805 2266.621,909.309" />
<path d="M 8.0078125,0 L 8.0078125,-71.582031 L 17.480469,-71.582031 L 17.480469,-42.1875 L 54.6875,-42.1875 L 54.6875,-71.582031 L 64.160156,-71.582031 L 64.160156,0 L 54.6875,0 L 54.6875,-33.740234 L 17.480469,-33.740234 L 17.480469,0 L 8.0078125,0 z" transform="translate(1859.625,1082.306)" />
<path d="M 7.6171875,0 L 7.6171875,-71.582031 L 17.333984,-71.582031 L 54.931641,-15.380859 L 54.931641,-71.582031 L 64.013672,-71.582031 L 64.013672,0 L 54.296875,0 L 16.699219,-56.25 L 16.699219,0 L 7.6171875,0 z" transform="translate(1859.625,1165.721)" />
<polygon points="1944.628,1158.811 1947.617,1153.303 2020.117,1195.305 2020.117,1202.307 1944.628,1158.811" />
<polygon points="1773.613,1200.305 1770.625,1198.811 1770.625,1195.305 1842.617,1153.811 1845.625,1158.811 1773.613,1200.305" />
<polygon points="1646.113,1130.305 1646.113,1123.303 1770.625,1195.305 1770.625,1198.811 1767.617,1200.305 1646.113,1130.305" />
<path d="M 4.4921875,-22.998047 L 13.427734,-23.779297 C 13.850898,-20.198548 14.835597,-17.260725 16.381836,-14.96582 C 17.928042,-12.670886 20.328756,-10.815419 23.583984,-9.3994141 C 26.839166,-7.9833905 30.501272,-7.2753833 34.570313,-7.2753906 C 38.183556,-7.2753833 41.373657,-7.8124922 44.140625,-8.8867188 C 46.907505,-9.9609275 48.966422,-11.433908 50.317383,-13.305664 C 51.668243,-15.177394 52.343698,-17.220035 52.34375,-19.433594 C 52.343698,-21.679666 51.692657,-23.640927 50.390625,-25.317383 C 49.088493,-26.993788 46.940057,-28.401664 43.945313,-29.541016 C 42.024698,-30.289683 37.776655,-31.453419 31.201172,-33.032227 C 24.625626,-34.610968 20.019511,-36.100224 17.382813,-37.5 C 13.96483,-39.290325 11.417632,-41.512003 9.7412109,-44.165039 C 8.0647706,-46.817987 7.2265553,-49.788362 7.2265625,-53.076172 C 7.2265553,-56.689396 8.2519449,-60.066672 10.302734,-63.208008 C 12.353503,-66.349218 15.348292,-68.733655 19.287109,-70.361328 C 23.225888,-71.98886 27.604139,-72.802662 32.421875,-72.802734 C 37.727827,-72.802662 42.407184,-71.94817 46.459961,-70.239258 C 50.512645,-68.530205 53.629504,-66.015559 55.810547,-62.695313 C 57.991478,-59.374941 59.163352,-55.615179 59.326172,-51.416016 L 50.244141,-50.732422 C 49.75581,-55.257106 48.103793,-58.675072 45.288086,-60.986328 C 42.472288,-63.297463 38.313764,-64.453061 32.8125,-64.453125 C 27.083306,-64.453061 22.908506,-63.403257 20.288086,-61.303711 C 17.667626,-59.204042 16.357406,-56.67312 16.357422,-53.710938 C 16.357406,-51.139272 17.285139,-49.023388 19.140625,-47.363281 C 20.963521,-45.703079 25.724258,-44.002235 33.422852,-42.260742 C 41.121378,-40.519165 46.402948,-38.997357 49.267578,-37.695313 C 53.434191,-35.774704 56.51036,-33.341438 58.496094,-30.395508 C 60.48171,-27.449517 61.474548,-24.055966 61.474609,-20.214844 C 61.474548,-16.406234 60.384054,-12.81737 58.203125,-9.4482422 C 56.022079,-6.0790955 52.888945,-3.4586554 48.803711,-1.5869141 C 44.71838,0.28483044 40.120403,1.2207019 35.009766,1.2207031 C 28.531873,1.2207019 23.103818,0.27669243 18.725586,-1.6113281 C 14.347316,-3.4993455 10.913075,-6.3395119 8.4228516,-10.131836 C 5.9326113,-13.92414 4.6223912,-18.212872 4.4921875,-22.998047 L 4.4921875,-22.998047 z" transform="translate(1488.627,949.8057)" />
<path d="M 4.4921875,-22.998047 L 13.427734,-23.779297 C 13.850898,-20.198548 14.835597,-17.260725 16.381836,-14.96582 C 17.928042,-12.670886 20.328756,-10.815419 23.583984,-9.3994141 C 26.839166,-7.9833905 30.501272,-7.2753833 34.570313,-7.2753906 C 38.183556,-7.2753833 41.373657,-7.8124922 44.140625,-8.8867188 C 46.907505,-9.9609275 48.966422,-11.433908 50.317383,-13.305664 C 51.668243,-15.177394 52.343698,-17.220035 52.34375,-19.433594 C 52.343698,-21.679666 51.692657,-23.640927 50.390625,-25.317383 C 49.088493,-26.993788 46.940057,-28.401664 43.945313,-29.541016 C 42.024698,-30.289683 37.776655,-31.453419 31.201172,-33.032227 C 24.625626,-34.610968 20.019511,-36.100224 17.382813,-37.5 C 13.96483,-39.290325 11.417632,-41.512003 9.7412109,-44.165039 C 8.0647706,-46.817987 7.2265553,-49.788362 7.2265625,-53.076172 C 7.2265553,-56.689396 8.2519449,-60.066672 10.302734,-63.208008 C 12.353503,-66.349218 15.348292,-68.733655 19.287109,-70.361328 C 23.225888,-71.98886 27.604139,-72.802662 32.421875,-72.802734 C 37.727827,-72.802662 42.407184,-71.94817 46.459961,-70.239258 C 50.512645,-68.530205 53.629504,-66.015559 55.810547,-62.695313 C 57.991478,-59.374941 59.163352,-55.615179 59.326172,-51.416016 L 50.244141,-50.732422 C 49.75581,-55.257106 48.103793,-58.675072 45.288086,-60.986328 C 42.472288,-63.297463 38.313764,-64.453061 32.8125,-64.453125 C 27.083306,-64.453061 22.908506,-63.403257 20.288086,-61.303711 C 17.667626,-59.204042 16.357406,-56.67312 16.357422,-53.710938 C 16.357406,-51.139272 17.285139,-49.023388 19.140625,-47.363281 C 20.963521,-45.703079 25.724258,-44.002235 33.422852,-42.260742 C 41.121378,-40.519165 46.402948,-38.997357 49.267578,-37.695313 C 53.434191,-35.774704 56.51036,-33.341438 58.496094,-30.395508 C 60.48171,-27.449517 61.474548,-24.055966 61.474609,-20.214844 C 61.474548,-16.406234 60.384054,-12.81737 58.203125,-9.4482422 C 56.022079,-6.0790955 52.888945,-3.4586554 48.803711,-1.5869141 C 44.71838,0.28483044 40.120403,1.2207019 35.009766,1.2207031 C 28.531873,1.2207019 23.103818,0.27669243 18.725586,-1.6113281 C 14.347316,-3.4993455 10.913075,-6.3395119 8.4228516,-10.131836 C 5.9326113,-13.92414 4.6223912,-18.212872 4.4921875,-22.998047 L 4.4921875,-22.998047 z" transform="translate(1488.627,805.7988)" />
<rect width="5.9959998" height="39.002998" x="1518.125" y="822.30701" />
<polygon points="1643.125,693.308 1649.121,696.306 1564.121,745.808 1561.132,740.305 1643.125,693.308" />
<polygon points="1643.125,552.307 1646.113,550.808 1649.121,552.307 1649.121,696.306 1643.125,693.308 1643.125,552.307" />
<polygon points="1770.625,475.305 1770.625,482.307 1649.121,552.307 1646.113,550.808 1646.113,547.307 1770.625,475.305" />
<path d="M 7.6171875,0 L 7.6171875,-71.582031 L 17.333984,-71.582031 L 54.931641,-15.380859 L 54.931641,-71.582031 L 64.013672,-71.582031 L 64.013672,0 L 54.296875,0 L 16.699219,-56.25 L 16.699219,0 L 7.6171875,0 z" transform="translate(1859.625,589.8057)" />
<path d="M 8.0078125,0 L 8.0078125,-71.582031 L 17.480469,-71.582031 L 17.480469,-42.1875 L 54.6875,-42.1875 L 54.6875,-71.582031 L 64.160156,-71.582031 L 64.160156,0 L 54.6875,0 L 54.6875,-33.740234 L 17.480469,-33.740234 L 17.480469,0 L 8.0078125,0 z" transform="translate(1859.625,673.2197)" />
<polygon points="1848.125,520.305 1845.117,525.305 1770.625,482.307 1770.625,475.305 1848.125,520.305" />
<polygon points="2017.128,477.307 2020.117,478.806 2020.117,482.307 1945.117,525.305 1942.128,520.305 2017.128,477.307" />
<polygon points="2147.617,549.309 2141.621,552.307 2020.117,482.307 2020.117,478.806 2023.125,477.307 2147.617,549.309" />
<path d="M 8.0078125,0 L 8.0078125,-71.582031 L 17.480469,-71.582031 L 17.480469,-42.1875 L 54.6875,-42.1875 L 54.6875,-71.582031 L 64.160156,-71.582031 L 64.160156,0 L 54.6875,0 L 54.6875,-33.740234 L 17.480469,-33.740234 L 17.480469,0 L 8.0078125,0 z M 79.882813,0 L 79.882813,-71.582031 L 89.599609,-71.582031 L 127.19727,-15.380859 L 127.19727,-71.582031 L 136.2793,-71.582031 L 136.2793,0 L 126.5625,0 L 88.964844,-56.25 L 88.964844,0 L 79.882813,0 z" transform="translate(2035.123,733.8174)" />
<polygon points="2147.617,646.809 2141.621,646.809 2141.621,552.307 2147.617,549.309 2147.617,646.809" />
<polygon points="2269.628,763.308 2269.628,766.809 2266.621,768.308 2192.128,725.808 2195.117,720.305 2269.628,763.308" />
<polygon points="2272.617,912.307 2266.621,909.309 2266.621,768.308 2269.628,766.809 2272.617,768.308 2272.617,912.307" />
<path d="M 7.6171875,0 L 7.6171875,-71.582031 L 17.333984,-71.582031 L 54.931641,-15.380859 L 54.931641,-71.582031 L 64.013672,-71.582031 L 64.013672,0 L 54.296875,0 L 16.699219,-56.25 L 16.699219,0 L 7.6171875,0 z" transform="translate(1485.123,1237.808)" />
<path d="M 8.0078125,0 L 8.0078125,-71.582031 L 17.480469,-71.582031 L 17.480469,-42.1875 L 54.6875,-42.1875 L 54.6875,-71.582031 L 64.160156,-71.582031 L 64.160156,0 L 54.6875,0 L 54.6875,-33.740234 L 17.480469,-33.740234 L 17.480469,0 L 8.0078125,0 z" transform="translate(1485.123,1321.223)" />
<polygon points="1571.113,1173.303 1568.125,1168.303 1646.113,1123.303 1646.113,1130.305 1571.113,1173.303" />
<polygon points="1396.621,1130.305 1396.621,1126.809 1399.628,1125.305 1474.121,1168.303 1471.132,1173.303 1396.621,1130.305" />
<polygon points="1393.613,981.311 1399.628,984.309 1399.628,1125.305 1396.621,1126.809 1393.613,1125.305 1393.613,981.311" />
<polygon points="1475.117,933.811 1478.125,938.811 1399.628,984.309 1393.613,981.311 1475.117,933.811" />
<polygon points="1272.124,1201.809 1272.124,1195.305 1393.613,1125.305 1396.621,1126.809 1396.621,1130.305 1272.124,1201.809" />
<path d="M 4.8339844,-34.863281 C 4.8339795,-46.744745 8.0240805,-56.046493 14.404297,-62.768555 C 20.784484,-69.49049 29.020153,-72.85149 39.111328,-72.851563 C 45.719355,-72.85149 51.676381,-71.272715 56.982422,-68.115234 C 62.288349,-64.957617 66.332941,-60.554952 69.116211,-54.907227 C 71.899342,-49.259391 73.290942,-42.854775 73.291016,-35.693359 C 73.290942,-28.434216 71.8261,-21.940082 68.896484,-16.210938 C 65.966731,-10.48176 61.816344,-6.1441996 56.445313,-3.1982422 C 51.074168,-0.25227839 45.279903,1.2207019 39.0625,1.2207031 C 32.324186,1.2207019 26.302057,-0.40690063 20.996094,-3.6621094 C 15.690088,-6.9173108 11.66991,-11.360666 8.9355469,-16.992188 C 6.2011657,-22.623675 4.8339795,-28.580701 4.8339844,-34.863281 L 4.8339844,-34.863281 z M 14.599609,-34.716797 C 14.599595,-26.090469 16.918928,-19.295228 21.557617,-14.331055 C 26.196263,-9.3668526 32.014942,-6.8847587 39.013672,-6.8847656 C 46.142532,-6.8847587 52.010039,-9.3912667 56.616211,-14.404297 C 61.22227,-19.417298 63.525327,-26.529921 63.525391,-35.742188 C 63.525327,-41.568969 62.540628,-46.655227 60.571289,-51.000977 C 58.601829,-55.346624 55.720973,-58.715762 51.928711,-61.108398 C 48.136345,-63.500913 43.880164,-64.697201 39.160156,-64.697266 C 32.454395,-64.697201 26.684544,-62.394143 21.850586,-57.788086 C 17.016585,-53.181913 14.599595,-45.491491 14.599609,-34.716797 L 14.599609,-34.716797 z" transform="translate(1234.118,1380.799)" />
<rect width="6.0009999" height="100.996" x="1282.124" y="1191.311" />
<rect width="6.0009999" height="100.996" x="1256.123" y="1191.311" />
<path d="M 7.6171875,0 L 7.6171875,-71.582031 L 17.333984,-71.582031 L 54.931641,-15.380859 L 54.931641,-71.582031 L 64.013672,-71.582031 L 64.013672,0 L 54.296875,0 L 16.699219,-56.25 L 16.699219,0 L 7.6171875,0 z" transform="translate(1112.126,1165.799)" />
<polygon points="1197.124,1158.811 1200.122,1153.303 1272.124,1195.305 1272.124,1201.809 1197.124,1158.811" />
<path d="M 4.8339844,-34.863281 C 4.8339795,-46.744745 8.0240805,-56.046493 14.404297,-62.768555 C 20.784484,-69.49049 29.020153,-72.85149 39.111328,-72.851563 C 45.719355,-72.85149 51.676381,-71.272715 56.982422,-68.115234 C 62.288349,-64.957617 66.332941,-60.554952 69.116211,-54.907227 C 71.899342,-49.259391 73.290942,-42.854775 73.291016,-35.693359 C 73.290942,-28.434216 71.8261,-21.940082 68.896484,-16.210938 C 65.966731,-10.48176 61.816344,-6.1441996 56.445313,-3.1982422 C 51.074168,-0.25227839 45.279903,1.2207019 39.0625,1.2207031 C 32.324186,1.2207019 26.302057,-0.40690063 20.996094,-3.6621094 C 15.690088,-6.9173108 11.66991,-11.360666 8.9355469,-16.992188 C 6.2011657,-22.623675 4.8339795,-28.580701 4.8339844,-34.863281 L 4.8339844,-34.863281 z M 14.599609,-34.716797 C 14.599595,-26.090469 16.918928,-19.295228 21.557617,-14.331055 C 26.196263,-9.3668526 32.014942,-6.8847587 39.013672,-6.8847656 C 46.142532,-6.8847587 52.010039,-9.3912667 56.616211,-14.404297 C 61.22227,-19.417298 63.525327,-26.529921 63.525391,-35.742188 C 63.525327,-41.568969 62.540628,-46.655227 60.571289,-51.000977 C 58.601829,-55.346624 55.720973,-58.715762 51.928711,-61.108398 C 48.136345,-63.500913 43.880164,-64.697201 39.160156,-64.697266 C 32.454395,-64.697201 26.684544,-62.394143 21.850586,-57.788086 C 17.016585,-53.181913 14.599595,-45.491491 14.599609,-34.716797 L 14.599609,-34.716797 z" transform="translate(1607.623,1022.306)" />
<rect width="6.0159998" height="95.498001" x="1630.1169" y="1038.811" />
<rect width="6.0159998" height="95.498001" x="1656.113" y="1038.811" />
<polygon points="1773.613,1343.303 1767.617,1340.803 1767.617,1200.305 1770.625,1198.811 1773.613,1200.305 1773.613,1343.303" />
<path d="M 8.0078125,0 L 8.0078125,-71.582031 L 17.480469,-71.582031 L 17.480469,-42.1875 L 54.6875,-42.1875 L 54.6875,-71.582031 L 64.160156,-71.582031 L 64.160156,0 L 54.6875,0 L 54.6875,-33.740234 L 17.480469,-33.740234 L 17.480469,0 L 8.0078125,0 z" transform="translate(1370.502,517.8066)" />
<path d="M 37.756348,-6.3354492 L 37.756348,0 L 2.2705078,0 C 2.2216775,-1.5869125 2.4780249,-3.1127899 3.0395508,-4.5776367 C 3.9428672,-6.9946219 5.3893989,-9.3749906 7.3791504,-11.71875 C 9.3688871,-14.062486 12.24364,-16.772444 16.003418,-19.848633 C 21.838357,-24.633764 25.781224,-28.424044 27.832031,-31.219482 C 29.882783,-34.014859 30.908172,-36.657678 30.908203,-39.147949 C 30.908172,-41.760212 29.974335,-43.963579 28.106689,-45.758057 C 26.238987,-47.552443 23.803687,-48.449659 20.800781,-48.449707 C 17.626935,-48.449659 15.087876,-47.497511 13.183594,-45.593262 C 11.279286,-43.688921 10.314931,-41.052205 10.290527,-37.683105 L 3.515625,-38.378906 C 3.9794882,-43.432574 5.7250919,-47.283888 8.7524414,-49.932861 C 11.779773,-52.581735 15.844711,-53.906196 20.947266,-53.90625 C 26.098607,-53.906196 30.175751,-52.477975 33.178711,-49.621582 C 36.181604,-46.76509 37.683068,-43.225054 37.683105,-39.001465 C 37.683068,-36.85299 37.243615,-34.741176 36.364746,-32.666016 C 35.485804,-30.59079 34.027066,-28.405733 31.988525,-26.11084 C 29.949921,-23.815894 26.562473,-20.666483 21.826172,-16.662598 C 17.871076,-13.342272 15.332016,-11.090077 14.208984,-9.9060059 C 13.085924,-8.7219151 12.158191,-7.5317307 11.425781,-6.3354492 L 37.756348,-6.3354492 z" transform="translate(1442.699,536.5459)" />
<path d="M 7.6171875,0 L 7.6171875,-71.582031 L 17.333984,-71.582031 L 54.931641,-15.380859 L 54.931641,-71.582031 L 64.013672,-71.582031 L 64.013672,0 L 54.296875,0 L 16.699219,-56.25 L 16.699219,0 L 7.6171875,0 z" transform="translate(1484.408,517.8066)" />
<polygon points="1569.121,509.807 1572.128,504.807 1646.113,547.307 1646.113,550.808 1643.125,552.307 1569.121,509.807" />
<path d="M 4.8339844,-34.863281 C 4.8339795,-46.744745 8.0240805,-56.046493 14.404297,-62.768555 C 20.784484,-69.49049 29.020153,-72.85149 39.111328,-72.851563 C 45.719355,-72.85149 51.676381,-71.272715 56.982422,-68.115234 C 62.288349,-64.957617 66.332941,-60.554952 69.116211,-54.907227 C 71.899342,-49.259391 73.290942,-42.854775 73.291016,-35.693359 C 73.290942,-28.434216 71.8261,-21.940082 68.896484,-16.210938 C 65.966731,-10.48176 61.816344,-6.1441996 56.445313,-3.1982422 C 51.074168,-0.25227839 45.279903,1.2207019 39.0625,1.2207031 C 32.324186,1.2207019 26.302057,-0.40690063 20.996094,-3.6621094 C 15.690088,-6.9173108 11.66991,-11.360666 8.9355469,-16.992188 C 6.2011657,-22.623675 4.8339795,-28.580701 4.8339844,-34.863281 L 4.8339844,-34.863281 z M 14.599609,-34.716797 C 14.599595,-26.090469 16.918928,-19.295228 21.557617,-14.331055 C 26.196263,-9.3668526 32.014942,-6.8847587 39.013672,-6.8847656 C 46.142532,-6.8847587 52.010039,-9.3912667 56.616211,-14.404297 C 61.22227,-19.417298 63.525327,-26.529921 63.525391,-35.742188 C 63.525327,-41.568969 62.540628,-46.655227 60.571289,-51.000977 C 58.601829,-55.346624 55.720973,-58.715762 51.928711,-61.108398 C 48.136345,-63.500913 43.880164,-64.697201 39.160156,-64.697266 C 32.454395,-64.697201 26.684544,-62.394143 21.850586,-57.788086 C 17.016585,-53.181913 14.599595,-45.491491 14.599609,-34.716797 L 14.599609,-34.716797 z" transform="translate(1732.623,374.3076)" />
<rect width="5.9959998" height="95.498001" x="1754.6281" y="390.80801" />
<rect width="5.9959998" height="95.498001" x="1780.625" y="390.80801" />
<polygon points="2017.128,333.308 2023.125,336.306 2023.125,477.307 2020.117,478.806 2017.128,477.307 2017.128,333.308" />
<polygon points="2141.621,261.306 2144.628,262.805 2144.628,266.306 2023.125,336.306 2017.128,333.308 2141.621,261.306" />
<polygon points="2269.628,331.306 2269.628,338.308 2144.628,266.306 2144.628,262.805 2147.617,261.306 2269.628,331.306" />
<polygon points="2271.113,302.307 2268.125,307.307 2169.121,250.305 2172.128,245.305 2271.113,302.307" />
<polygon points="2391.113,261.306 2397.128,264.309 2269.628,338.308 2269.628,331.306 2391.113,261.306" />
<polygon points="2391.113,120.305 2394.121,118.806 2397.128,120.305 2397.128,264.309 2391.113,261.306 2391.113,120.305" />
<rect width="6.0159998" height="113.999" x="2365.1169" y="133.806" />
<polygon points="2269.628,50.305 2269.628,43.308 2394.121,115.305 2394.121,118.806 2391.113,120.305 2269.628,50.305" />
<polygon points="2147.617,120.305 2141.621,117.307 2269.628,43.308 2269.628,50.305 2147.617,120.305" />
<polygon points="2172.128,136.306 2169.121,131.306 2268.125,74.309 2271.113,79.309 2172.128,136.306" />
<polygon points="2147.617,261.306 2144.628,262.805 2141.621,261.306 2141.621,117.307 2147.617,120.305 2147.617,261.306" />
<path d="M 4.8339844,-34.863281 C 4.8339795,-46.744745 8.0240805,-56.046493 14.404297,-62.768555 C 20.784484,-69.49049 29.020153,-72.85149 39.111328,-72.851563 C 45.719355,-72.85149 51.676381,-71.272715 56.982422,-68.115234 C 62.288349,-64.957617 66.332941,-60.554952 69.116211,-54.907227 C 71.899342,-49.259391 73.290942,-42.854775 73.291016,-35.693359 C 73.290942,-28.434216 71.8261,-21.940082 68.896484,-16.210938 C 65.966731,-10.48176 61.816344,-6.1441996 56.445313,-3.1982422 C 51.074168,-0.25227839 45.279903,1.2207019 39.0625,1.2207031 C 32.324186,1.2207019 26.302057,-0.40690063 20.996094,-3.6621094 C 15.690088,-6.9173108 11.66991,-11.360666 8.9355469,-16.992188 C 6.2011657,-22.623675 4.8339795,-28.580701 4.8339844,-34.863281 L 4.8339844,-34.863281 z M 14.599609,-34.716797 C 14.599595,-26.090469 16.918928,-19.295228 21.557617,-14.331055 C 26.196263,-9.3668526 32.014942,-6.8847587 39.013672,-6.8847656 C 46.142532,-6.8847587 52.010039,-9.3912667 56.616211,-14.404297 C 61.22227,-19.417298 63.525327,-26.529921 63.525391,-35.742188 C 63.525327,-41.568969 62.540628,-46.655227 60.571289,-51.000977 C 58.601829,-55.346624 55.720973,-58.715762 51.928711,-61.108398 C 48.136345,-63.500913 43.880164,-64.697201 39.160156,-64.697266 C 32.454395,-64.697201 26.684544,-62.394143 21.850586,-57.788086 C 17.016585,-53.181913 14.599595,-45.491491 14.599609,-34.716797 L 14.599609,-34.716797 z M 85.742188,0 L 85.742188,-71.582031 L 95.214844,-71.582031 L 95.214844,-42.1875 L 132.42188,-42.1875 L 132.42188,-71.582031 L 141.89453,-71.582031 L 141.89453,0 L 132.42188,0 L 132.42188,-33.740234 L 95.214844,-33.740234 L 95.214844,0 L 85.742188,0 z" transform="translate(2480.123,85.7988)" />
<polygon points="2471.113,70.808 2474.121,75.808 2397.128,120.305 2394.121,118.806 2394.121,115.305 2471.113,70.808" />
<path d="M 4.8339844,-34.863281 C 4.8339795,-46.744745 8.0240805,-56.046493 14.404297,-62.768555 C 20.784484,-69.49049 29.020153,-72.85149 39.111328,-72.851563 C 45.719355,-72.85149 51.676381,-71.272715 56.982422,-68.115234 C 62.288349,-64.957617 66.332941,-60.554952 69.116211,-54.907227 C 71.899342,-49.259391 73.290942,-42.854775 73.291016,-35.693359 C 73.290942,-28.434216 71.8261,-21.940082 68.896484,-16.210938 C 65.966731,-10.48176 61.816344,-6.1441996 56.445313,-3.1982422 C 51.074168,-0.25227839 45.279903,1.2207019 39.0625,1.2207031 C 32.324186,1.2207019 26.302057,-0.40690063 20.996094,-3.6621094 C 15.690088,-6.9173108 11.66991,-11.360666 8.9355469,-16.992188 C 6.2011657,-22.623675 4.8339795,-28.580701 4.8339844,-34.863281 L 4.8339844,-34.863281 z M 14.599609,-34.716797 C 14.599595,-26.090469 16.918928,-19.295228 21.557617,-14.331055 C 26.196263,-9.3668526 32.014942,-6.8847587 39.013672,-6.8847656 C 46.142532,-6.8847587 52.010039,-9.3912667 56.616211,-14.404297 C 61.22227,-19.417298 63.525327,-26.529921 63.525391,-35.742188 C 63.525327,-41.568969 62.540628,-46.655227 60.571289,-51.000977 C 58.601829,-55.346624 55.720973,-58.715762 51.928711,-61.108398 C 48.136345,-63.500913 43.880164,-64.697201 39.160156,-64.697266 C 32.454395,-64.697201 26.684544,-62.394143 21.850586,-57.788086 C 17.016585,-53.181913 14.599595,-45.491491 14.599609,-34.716797 L 14.599609,-34.716797 z" transform="translate(2230.619,517.8066)" />
<rect width="5.8239999" height="98.112" x="2171.751" y="469.715" transform="matrix(0.5129,0.8585,-0.8585,0.5129,1504.637,-1614.149)" />
<polygon points="2228.125,513.806 2231.113,519.309 2146.132,568.308 2143.125,563.308 2228.125,513.806" />
<polygon points="2390.625,693.308 2393.632,694.807 2393.632,698.308 2272.617,768.308 2269.628,766.809 2269.628,763.308 2390.625,693.308" />
<polygon points="2519.628,764.309 2518.125,766.809 2516.621,769.309 2393.632,698.308 2393.632,694.807 2396.621,693.308 2519.628,764.309" />
<polygon points="2390.625,549.807 2396.621,553.308 2396.621,693.308 2393.632,694.807 2390.625,693.308 2390.625,549.807" />
<polygon points="2517.128,476.809 2518.613,479.309 2520.117,482.307 2396.621,553.308 2390.625,549.807 2517.128,476.809" />
<path d="M 4.8339844,-34.863281 C 4.8339795,-46.744745 8.0240805,-56.046493 14.404297,-62.768555 C 20.784484,-69.49049 29.020153,-72.85149 39.111328,-72.851563 C 45.719355,-72.85149 51.676381,-71.272715 56.982422,-68.115234 C 62.288349,-64.957617 66.332941,-60.554952 69.116211,-54.907227 C 71.899342,-49.259391 73.290942,-42.854775 73.291016,-35.693359 C 73.290942,-28.434216 71.8261,-21.940082 68.896484,-16.210938 C 65.966731,-10.48176 61.816344,-6.1441996 56.445313,-3.1982422 C 51.074168,-0.25227839 45.279903,1.2207019 39.0625,1.2207031 C 32.324186,1.2207019 26.302057,-0.40690063 20.996094,-3.6621094 C 15.690088,-6.9173108 11.66991,-11.360666 8.9355469,-16.992188 C 6.2011657,-22.623675 4.8339795,-28.580701 4.8339844,-34.863281 L 4.8339844,-34.863281 z M 14.599609,-34.716797 C 14.599595,-26.090469 16.918928,-19.295228 21.557617,-14.331055 C 26.196263,-9.3668526 32.014942,-6.8847587 39.013672,-6.8847656 C 46.142532,-6.8847587 52.010039,-9.3912667 56.616211,-14.404297 C 61.22227,-19.417298 63.525327,-26.529921 63.525391,-35.742188 C 63.525327,-41.568969 62.540628,-46.655227 60.571289,-51.000977 C 58.601829,-55.346624 55.720973,-58.715762 51.928711,-61.108398 C 48.136345,-63.500913 43.880164,-64.697201 39.160156,-64.697266 C 32.454395,-64.697201 26.684544,-62.394143 21.850586,-57.788086 C 17.016585,-53.181913 14.599595,-45.491491 14.599609,-34.716797 L 14.599609,-34.716797 z" transform="translate(2355.619,1021.317)" />
<rect width="5.8249998" height="101.032" x="2310.439" y="870.479" transform="matrix(-0.513,0.8584,-0.8584,-0.513,4290.7,-592.2529)" />
<rect width="5.835" height="101.032" x="2297.498" y="893.06403" transform="matrix(-0.5155,0.8569,-0.8569,-0.5155,4294.789,-541.2534)" />
<polygon points="2272.617,1197.307 2266.621,1200.305 2144.628,1130.305 2144.628,1126.809 2147.617,1125.305 2272.617,1197.307" />
<polygon points="2272.617,1341.311 2266.621,1344.309 2266.621,1200.305 2272.617,1197.307 2272.617,1341.311" />
<polygon points="2397.128,1413.303 2391.113,1416.311 2266.621,1344.309 2272.617,1341.311 2397.128,1413.303" />
<path d="M 4.8339844,-34.863281 C 4.8339795,-46.744745 8.0240805,-56.046493 14.404297,-62.768555 C 20.784484,-69.49049 29.020153,-72.85149 39.111328,-72.851563 C 45.719355,-72.85149 51.676381,-71.272715 56.982422,-68.115234 C 62.288349,-64.957617 66.332941,-60.554952 69.116211,-54.907227 C 71.899342,-49.259391 73.290942,-42.854775 73.291016,-35.693359 C 73.290942,-28.434216 71.8261,-21.940082 68.896484,-16.210938 C 65.966731,-10.48176 61.816344,-6.1441996 56.445313,-3.1982422 C 51.074168,-0.25227839 45.279903,1.2207019 39.0625,1.2207031 C 32.324186,1.2207019 26.302057,-0.40690063 20.996094,-3.6621094 C 15.690088,-6.9173108 11.66991,-11.360666 8.9355469,-16.992188 C 6.2011657,-22.623675 4.8339795,-28.580701 4.8339844,-34.863281 L 4.8339844,-34.863281 z M 14.599609,-34.716797 C 14.599595,-26.090469 16.918928,-19.295228 21.557617,-14.331055 C 26.196263,-9.3668526 32.014942,-6.8847587 39.013672,-6.8847656 C 46.142532,-6.8847587 52.010039,-9.3912667 56.616211,-14.404297 C 61.22227,-19.417298 63.525327,-26.529921 63.525391,-35.742188 C 63.525327,-41.568969 62.540628,-46.655227 60.571289,-51.000977 C 58.601829,-55.346624 55.720973,-58.715762 51.928711,-61.108398 C 48.136345,-63.500913 43.880164,-64.697201 39.160156,-64.697266 C 32.454395,-64.697201 26.684544,-62.394143 21.850586,-57.788086 C 17.016585,-53.181913 14.599595,-45.491491 14.599609,-34.716797 L 14.599609,-34.716797 z" transform="translate(2480.123,1381.809)" />
<rect width="5.8249998" height="98.114998" x="2420.7759" y="1333.72" transform="matrix(0.513,0.8584,-0.8584,0.513,2367.246,-1407.054)" />
<polygon points="2477.617,1377.805 2480.625,1383.303 2395.625,1432.307 2392.617,1427.307 2477.617,1377.805" />
<path d="M 7.6171875,0 L 7.6171875,-71.582031 L 17.333984,-71.582031 L 54.931641,-15.380859 L 54.931641,-71.582031 L 64.013672,-71.582031 L 64.013672,0 L 54.296875,0 L 16.699219,-56.25 L 16.699219,0 L 7.6171875,0 z M 80.273438,0 L 80.273438,-71.582031 L 89.746094,-71.582031 L 89.746094,-42.1875 L 126.95313,-42.1875 L 126.95313,-71.582031 L 136.42578,-71.582031 L 136.42578,0 L 126.95313,0 L 126.95313,-33.740234 L 89.746094,-33.740234 L 89.746094,0 L 80.273438,0 z" transform="translate(2358.125,1597.306)" />
<path d="M 37.756348,-6.3354492 L 37.756348,0 L 2.2705078,0 C 2.2216775,-1.5869125 2.4780249,-3.1127899 3.0395508,-4.5776367 C 3.9428672,-6.9946219 5.3893989,-9.3749906 7.3791504,-11.71875 C 9.3688871,-14.062486 12.24364,-16.772444 16.003418,-19.848633 C 21.838357,-24.633764 25.781224,-28.424044 27.832031,-31.219482 C 29.882783,-34.014859 30.908172,-36.657678 30.908203,-39.147949 C 30.908172,-41.760212 29.974335,-43.963579 28.106689,-45.758057 C 26.238987,-47.552443 23.803687,-48.449659 20.800781,-48.449707 C 17.626935,-48.449659 15.087876,-47.497511 13.183594,-45.593262 C 11.279286,-43.688921 10.314931,-41.052205 10.290527,-37.683105 L 3.515625,-38.378906 C 3.9794882,-43.432574 5.7250919,-47.283888 8.7524414,-49.932861 C 11.779773,-52.581735 15.844711,-53.906196 20.947266,-53.90625 C 26.098607,-53.906196 30.175751,-52.477975 33.178711,-49.621582 C 36.181604,-46.76509 37.683068,-43.225054 37.683105,-39.001465 C 37.683068,-36.85299 37.243615,-34.741176 36.364746,-32.666016 C 35.485804,-30.59079 34.027066,-28.405733 31.988525,-26.11084 C 29.949921,-23.815894 26.562473,-20.666483 21.826172,-16.662598 C 17.871076,-13.342272 15.332016,-11.090077 14.208984,-9.9060059 C 13.085924,-8.7219151 12.158191,-7.5317307 11.425781,-6.3354492 L 37.756348,-6.3354492 z" transform="translate(2502.533,1616.053)" />
<polygon points="2397.128,1510.305 2391.113,1510.305 2391.113,1416.311 2397.128,1413.303 2397.128,1510.305" />
<path d="M 4.8339844,-34.863281 C 4.8339795,-46.744745 8.0240805,-56.046493 14.404297,-62.768555 C 20.784484,-69.49049 29.020153,-72.85149 39.111328,-72.851563 C 45.719355,-72.85149 51.676381,-71.272715 56.982422,-68.115234 C 62.288349,-64.957617 66.332941,-60.554952 69.116211,-54.907227 C 71.899342,-49.259391 73.290942,-42.854775 73.291016,-35.693359 C 73.290942,-28.434216 71.8261,-21.940082 68.896484,-16.210938 C 65.966731,-10.48176 61.816344,-6.1441996 56.445313,-3.1982422 C 51.074168,-0.25227839 45.279903,1.2207019 39.0625,1.2207031 C 32.324186,1.2207019 26.302057,-0.40690063 20.996094,-3.6621094 C 15.690088,-6.9173108 11.66991,-11.360666 8.9355469,-16.992188 C 6.2011657,-22.623675 4.8339795,-28.580701 4.8339844,-34.863281 L 4.8339844,-34.863281 z M 14.599609,-34.716797 C 14.599595,-26.090469 16.918928,-19.295228 21.557617,-14.331055 C 26.196263,-9.3668526 32.014942,-6.8847587 39.013672,-6.8847656 C 46.142532,-6.8847587 52.010039,-9.3912667 56.616211,-14.404297 C 61.22227,-19.417298 63.525327,-26.529921 63.525391,-35.742188 C 63.525327,-41.568969 62.540628,-46.655227 60.571289,-51.000977 C 58.601829,-55.346624 55.720973,-58.715762 51.928711,-61.108398 C 48.136345,-63.500913 43.880164,-64.697201 39.160156,-64.697266 C 32.454395,-64.697201 26.684544,-62.394143 21.850586,-57.788086 C 17.016585,-53.181913 14.599595,-45.491491 14.599609,-34.716797 L 14.599609,-34.716797 z" transform="translate(1981.617,1381.317)" />
<rect width="5.9959998" height="101.494" x="2030.1169" y="1191.311" />
<rect width="5.9959998" height="101.494" x="2004.121" y="1191.311" />
<polygon points="1026.123,1200.305 1023.125,1198.811 1023.623,1195.305 1095.122,1153.811 1098.125,1158.811 1026.123,1200.305" />
<polygon points="1115.625,988.811 1120.625,983.303 1140.122,1074.807 1134.121,1075.803 1115.625,988.811" />
<polygon points="976.621,974.309 973.125,967.805 1120.625,983.303 1115.625,988.811 976.621,974.309" />
<polygon points="920.122,1101.809 912.622,1103.303 973.125,967.805 976.621,974.309 920.122,1101.809" />
<polygon points="1023.623,1195.305 1023.125,1198.811 1020.122,1200.305 912.622,1103.303 920.122,1101.809 1023.623,1195.305" />
<polygon points="1026.123,1344.309 1020.122,1341.311 1020.122,1200.305 1023.125,1198.811 1026.123,1200.305 1026.123,1344.309" />
<path d="M 7.6171875,0 L 7.6171875,-71.582031 L 17.333984,-71.582031 L 54.931641,-15.380859 L 54.931641,-71.582031 L 64.013672,-71.582031 L 64.013672,0 L 54.296875,0 L 16.699219,-56.25 L 16.699219,0 L 7.6171875,0 z" transform="translate(862.623,1453.817)" />
<path d="M 8.0078125,0 L 8.0078125,-71.582031 L 17.480469,-71.582031 L 17.480469,-42.1875 L 54.6875,-42.1875 L 54.6875,-71.582031 L 64.160156,-71.582031 L 64.160156,0 L 54.6875,0 L 54.6875,-33.740234 L 17.480469,-33.740234 L 17.480469,0 L 8.0078125,0 z" transform="translate(862.623,1537.222)" />
<polygon points="948.623,1389.309 945.625,1383.811 1020.122,1341.311 1026.123,1344.309 948.623,1389.309" />
<polygon points="774.121,1346.311 774.121,1342.805 777.124,1341.311 851.621,1384.309 848.623,1389.309 774.121,1346.311" />
<path d="M 4.8339844,-34.863281 C 4.8339795,-46.744745 8.0240805,-56.046493 14.404297,-62.768555 C 20.784484,-69.49049 29.020153,-72.85149 39.111328,-72.851563 C 45.719355,-72.85149 51.676381,-71.272715 56.982422,-68.115234 C 62.288349,-64.957617 66.332941,-60.554952 69.116211,-54.907227 C 71.899342,-49.259391 73.290942,-42.854775 73.291016,-35.693359 C 73.290942,-28.434216 71.8261,-21.940082 68.896484,-16.210938 C 65.966731,-10.48176 61.816344,-6.1441996 56.445313,-3.1982422 C 51.074168,-0.25227839 45.279903,1.2207019 39.0625,1.2207031 C 32.324186,1.2207019 26.302057,-0.40690063 20.996094,-3.6621094 C 15.690088,-6.9173108 11.66991,-11.360666 8.9355469,-16.992188 C 6.2011657,-22.623675 4.8339795,-28.580701 4.8339844,-34.863281 L 4.8339844,-34.863281 z M 14.599609,-34.716797 C 14.599595,-26.090469 16.918928,-19.295228 21.557617,-14.331055 C 26.196263,-9.3668526 32.014942,-6.8847587 39.013672,-6.8847656 C 46.142532,-6.8847587 52.010039,-9.3912667 56.616211,-14.404297 C 61.22227,-19.417298 63.525327,-26.529921 63.525391,-35.742188 C 63.525327,-41.568969 62.540628,-46.655227 60.571289,-51.000977 C 58.601829,-55.346624 55.720973,-58.715762 51.928711,-61.108398 C 48.136345,-63.500913 43.880164,-64.697201 39.160156,-64.697266 C 32.454395,-64.697201 26.684544,-62.394143 21.850586,-57.788086 C 17.016585,-53.181913 14.599595,-45.491491 14.599609,-34.716797 L 14.599609,-34.716797 z" transform="translate(1109.118,1453.299)" />
<rect width="5.8319998" height="101.03" x="1064.031" y="1302.556" transform="matrix(-0.5149,0.8573,-0.8573,-0.5149,2776.231,1135.057)" />
<rect width="5.8319998" height="101.032" x="1051.533" y="1325.057" transform="matrix(-0.5147,0.8573,-0.8573,-0.5147,2776.558,1179.61)" />
<polygon points="649.121,1418.303 649.121,1411.311 771.123,1341.311 774.121,1342.805 774.121,1346.311 649.121,1418.303" />
<path d="M 8.0078125,0 L 8.0078125,-71.582031 L 17.480469,-71.582031 L 17.480469,-42.1875 L 54.6875,-42.1875 L 54.6875,-71.582031 L 64.160156,-71.582031 L 64.160156,0 L 54.6875,0 L 54.6875,-33.740234 L 17.480469,-33.740234 L 17.480469,0 L 8.0078125,0 z" transform="translate(488.627,1298.299)" />
<path d="M 7.6171875,0 L 7.6171875,-71.582031 L 17.333984,-71.582031 L 54.931641,-15.380859 L 54.931641,-71.582031 L 64.013672,-71.582031 L 64.013672,0 L 54.296875,0 L 16.699219,-56.25 L 16.699219,0 L 7.6171875,0 z" transform="translate(488.627,1381.72)" />
<polygon points="574.121,1375.305 577.124,1369.807 649.121,1411.311 649.121,1418.303 574.121,1375.305" />
<polygon points="399.624,1418.303 399.624,1411.311 472.124,1369.309 475.122,1374.807 399.624,1418.303" />
<polygon points="771.123,1199.807 777.124,1197.307 777.124,1341.311 774.121,1342.805 771.123,1341.311 771.123,1199.807" />
<polygon points="671.123,1100.305 672.124,1096.809 675.625,1096.311 777.124,1197.307 771.123,1199.807 671.123,1100.305" />
<path d="M 4.8339844,-34.863281 C 4.8339795,-46.744745 8.0240805,-56.046493 14.404297,-62.768555 C 20.784484,-69.49049 29.020153,-72.85149 39.111328,-72.851563 C 45.719355,-72.85149 51.676381,-71.272715 56.982422,-68.115234 C 62.288349,-64.957617 66.332941,-60.554952 69.116211,-54.907227 C 71.899342,-49.259391 73.290942,-42.854775 73.291016,-35.693359 C 73.290942,-28.434216 71.8261,-21.940082 68.896484,-16.210938 C 65.966731,-10.48176 61.816344,-6.1441996 56.445313,-3.1982422 C 51.074168,-0.25227839 45.279903,1.2207019 39.0625,1.2207031 C 32.324186,1.2207019 26.302057,-0.40690063 20.996094,-3.6621094 C 15.690088,-6.9173108 11.66991,-11.360666 8.9355469,-16.992188 C 6.2011657,-22.623675 4.8339795,-28.580701 4.8339844,-34.863281 L 4.8339844,-34.863281 z M 14.599609,-34.716797 C 14.599595,-26.090469 16.918928,-19.295228 21.557617,-14.331055 C 26.196263,-9.3668526 32.014942,-6.8847587 39.013672,-6.8847656 C 46.142532,-6.8847587 52.010039,-9.3912667 56.616211,-14.404297 C 61.22227,-19.417298 63.525327,-26.529921 63.525391,-35.742188 C 63.525327,-41.568969 62.540628,-46.655227 60.571289,-51.000977 C 58.601829,-55.346624 55.720973,-58.715762 51.928711,-61.108398 C 48.136345,-63.500913 43.880164,-64.697201 39.160156,-64.697266 C 32.454395,-64.697201 26.684544,-62.394143 21.850586,-57.788086 C 17.016585,-53.181913 14.599595,-45.491491 14.599609,-34.716797 L 14.599609,-34.716797 z" transform="translate(611.127,1597.306)" />
<rect width="6.0009999" height="101.504" x="659.12097" y="1407.307" />
<rect width="5.9959998" height="101.504" x="633.125" y="1407.307" />
<polygon points="706.123,957.805 709.121,958.303 712.124,959.309 675.625,1096.311 672.124,1096.809 669.624,1094.309 706.123,957.805" />
<polygon points="534.121,1136.809 533.623,1134.309 532.622,1131.311 669.624,1094.309 672.124,1096.809 671.123,1100.305 534.121,1136.809" />
<polygon points="1672.128,1444.807 1665.625,1443.303 1767.617,1340.803 1773.613,1343.303 1672.128,1444.807" />
<path d="M 7.6171875,0 L 7.6171875,-71.582031 L 17.333984,-71.582031 L 54.931641,-15.380859 L 54.931641,-71.582031 L 64.013672,-71.582031 L 64.013672,0 L 54.296875,0 L 16.699219,-56.25 L 16.699219,0 L 7.6171875,0 z M 80.273438,0 L 80.273438,-71.582031 L 89.746094,-71.582031 L 89.746094,-42.1875 L 126.95313,-42.1875 L 126.95313,-71.582031 L 136.42578,-71.582031 L 136.42578,0 L 126.95313,0 L 126.95313,-33.740234 L 89.746094,-33.740234 L 89.746094,0 L 80.273438,0 z" transform="translate(1670.123,1621.809)" />
<path d="M 37.756348,-6.3354492 L 37.756348,0 L 2.2705078,0 C 2.2216775,-1.5869125 2.4780249,-3.1127899 3.0395508,-4.5776367 C 3.9428672,-6.9946219 5.3893989,-9.3749906 7.3791504,-11.71875 C 9.3688871,-14.062486 12.24364,-16.772444 16.003418,-19.848633 C 21.838357,-24.633764 25.781224,-28.424044 27.832031,-31.219482 C 29.882783,-34.014859 30.908172,-36.657678 30.908203,-39.147949 C 30.908172,-41.760212 29.974335,-43.963579 28.106689,-45.758057 C 26.238987,-47.552443 23.803687,-48.449659 20.800781,-48.449707 C 17.626935,-48.449659 15.087876,-47.497511 13.183594,-45.593262 C 11.279286,-43.688921 10.314931,-41.052205 10.290527,-37.683105 L 3.515625,-38.378906 C 3.9794882,-43.432574 5.7250919,-47.283888 8.7524414,-49.932861 C 11.779773,-52.581735 15.844711,-53.906196 20.947266,-53.90625 C 26.098607,-53.906196 30.175751,-52.477975 33.178711,-49.621582 C 36.181604,-46.76509 37.683068,-43.225054 37.683105,-39.001465 C 37.683068,-36.85299 37.243615,-34.741176 36.364746,-32.666016 C 35.485804,-30.59079 34.027066,-28.405733 31.988525,-26.11084 C 29.949921,-23.815894 26.562473,-20.666483 21.826172,-16.662598 C 17.871076,-13.342272 15.332016,-11.090077 14.208984,-9.9060059 C 13.085924,-8.7219151 12.158191,-7.5317307 11.425781,-6.3354492 L 37.756348,-6.3354492 z" transform="translate(1814.535,1640.555)" />
<polygon points="1695.117,1529.807 1689.121,1531.311 1665.625,1443.303 1672.128,1444.807 1695.117,1529.807" />
<text transform="translate(1492.125,1445.799)"><tspan x="0" y="0" style="font-size:100px;font-family:ArialMT">O</tspan></text>
<polygon points="1575.625,1435.803 1577.128,1429.807 1673.632,1455.803 1672.128,1461.311 1575.625,1435.803" />
<polygon points="1582.128,1410.803 1583.632,1404.807 1680.117,1430.803 1678.613,1436.311 1582.128,1410.803" />
<polygon points="275.625,1346.311 275.625,1339.807 399.624,1411.311 399.624,1418.303 275.625,1346.311" />
<path d="M 8.0078125,0 L 8.0078125,-71.582031 L 17.480469,-71.582031 L 17.480469,-42.1875 L 54.6875,-42.1875 L 54.6875,-71.582031 L 64.160156,-71.582031 L 64.160156,0 L 54.6875,0 L 54.6875,-33.740234 L 17.480469,-33.740234 L 17.480469,0 L 8.0078125,0 z" transform="translate(0,1453.817)" />
<path d="M 37.756348,-6.3354492 L 37.756348,0 L 2.2705078,0 C 2.2216775,-1.5869125 2.4780249,-3.1127899 3.0395508,-4.5776367 C 3.9428672,-6.9946219 5.3893989,-9.3749906 7.3791504,-11.71875 C 9.3688871,-14.062486 12.24364,-16.772444 16.003418,-19.848633 C 21.838357,-24.633764 25.781224,-28.424044 27.832031,-31.219482 C 29.882783,-34.014859 30.908172,-36.657678 30.908203,-39.147949 C 30.908172,-41.760212 29.974335,-43.963579 28.106689,-45.758057 C 26.238987,-47.552443 23.803687,-48.449659 20.800781,-48.449707 C 17.626935,-48.449659 15.087876,-47.497511 13.183594,-45.593262 C 11.279286,-43.688921 10.314931,-41.052205 10.290527,-37.683105 L 3.515625,-38.378906 C 3.9794882,-43.432574 5.7250919,-47.283888 8.7524414,-49.932861 C 11.779773,-52.581735 15.844711,-53.906196 20.947266,-53.90625 C 26.098607,-53.906196 30.175751,-52.477975 33.178711,-49.621582 C 36.181604,-46.76509 37.683068,-43.225054 37.683105,-39.001465 C 37.683068,-36.85299 37.243615,-34.741176 36.364746,-32.666016 C 35.485804,-30.59079 34.027066,-28.405733 31.988525,-26.11084 C 29.949921,-23.815894 26.562473,-20.666483 21.826172,-16.662598 C 17.871076,-13.342272 15.332016,-11.090077 14.208984,-9.9060059 C 13.085924,-8.7219151 12.158191,-7.5317307 11.425781,-6.3354492 L 37.756348,-6.3354492 z" transform="translate(72.2007,1472.557)" />
<path d="M 7.6171875,0 L 7.6171875,-71.582031 L 17.333984,-71.582031 L 54.931641,-15.380859 L 54.931641,-71.582031 L 64.013672,-71.582031 L 64.013672,0 L 54.296875,0 L 16.699219,-56.25 L 16.699219,0 L 7.6171875,0 z" transform="translate(113.9063,1453.817)" />
<polygon points="200.122,1389.807 197.124,1384.807 275.625,1339.807 275.625,1346.311 200.122,1389.807" />
<path d="M 4.8339844,-34.863281 C 4.8339795,-46.744745 8.0240805,-56.046493 14.404297,-62.768555 C 20.784484,-69.49049 29.020153,-72.85149 39.111328,-72.851563 C 45.719355,-72.85149 51.676381,-71.272715 56.982422,-68.115234 C 62.288349,-64.957617 66.332941,-60.554952 69.116211,-54.907227 C 71.899342,-49.259391 73.290942,-42.854775 73.291016,-35.693359 C 73.290942,-28.434216 71.8261,-21.940082 68.896484,-16.210938 C 65.966731,-10.48176 61.816344,-6.1441996 56.445313,-3.1982422 C 51.074168,-0.25227839 45.279903,1.2207019 39.0625,1.2207031 C 32.324186,1.2207019 26.302057,-0.40690063 20.996094,-3.6621094 C 15.690088,-6.9173108 11.66991,-11.360666 8.9355469,-16.992188 C 6.2011657,-22.623675 4.8339795,-28.580701 4.8339844,-34.863281 L 4.8339844,-34.863281 z M 14.599609,-34.716797 C 14.599595,-26.090469 16.918928,-19.295228 21.557617,-14.331055 C 26.196263,-9.3668526 32.014942,-6.8847587 39.013672,-6.8847656 C 46.142532,-6.8847587 52.010039,-9.3912667 56.616211,-14.404297 C 61.22227,-19.417298 63.525327,-26.529921 63.525391,-35.742188 C 63.525327,-41.568969 62.540628,-46.655227 60.571289,-51.000977 C 58.601829,-55.346624 55.720973,-58.715762 51.928711,-61.108398 C 48.136345,-63.500913 43.880164,-64.697201 39.160156,-64.697266 C 32.454395,-64.697201 26.684544,-62.394143 21.850586,-57.788086 C 17.016585,-53.181913 14.599595,-45.491491 14.599609,-34.716797 L 14.599609,-34.716797 z" transform="translate(237.126,1238.299)" />
<rect width="6.0009999" height="95.498001" x="259.62399" y="1254.807" />
<rect width="5.9959998" height="95.498001" x="285.625" y="1254.807" />
<path d="M 58.789063,-25.097656 L 68.261719,-22.705078 C 66.275975,-14.925115 62.703388,-8.992504 57.543945,-4.9072266 C 52.384388,-0.82193928 46.077428,1.2207019 38.623047,1.2207031 C 30.908172,1.2207019 24.633764,-0.34993455 19.799805,-3.4912109 C 14.965805,-6.6324803 11.287424,-11.181629 8.7646484,-17.138672 C 6.2418557,-23.09568 4.9804638,-29.492158 4.9804688,-36.328125 C 4.9804638,-43.782508 6.404616,-50.28478 9.2529297,-55.834961 C 12.101225,-61.38503 16.153955,-65.60052 21.411133,-68.481445 C 26.668268,-71.362233 32.454395,-72.802662 38.769531,-72.802734 C 45.930944,-72.802662 51.953073,-70.979747 56.835938,-67.333984 C 61.718688,-63.688087 65.120378,-58.561139 67.041016,-51.953125 L 57.714844,-49.755859 C 56.054631,-54.964138 53.64578,-58.756452 50.488281,-61.132813 C 47.330682,-63.509051 43.359332,-64.697201 38.574219,-64.697266 C 33.072884,-64.697201 28.474906,-63.378843 24.780273,-60.742188 C 21.085591,-58.105411 18.489565,-54.565375 16.992188,-50.12207 C 15.494776,-45.678665 14.746079,-41.096964 14.746094,-36.376953 C 14.746079,-30.289683 15.633122,-24.975561 17.407227,-20.43457 C 19.181296,-15.893539 21.940082,-12.499988 25.683594,-10.253906 C 29.427054,-8.0078045 33.479784,-6.8847587 37.841797,-6.8847656 C 43.147743,-6.8847587 47.639926,-8.4147051 51.318359,-11.474609 C 54.99669,-14.534491 57.486922,-19.075502 58.789063,-25.097656 L 58.789063,-25.097656 z M 78.466797,19.970703 L 77.490234,11.71875 C 79.4108,12.239571 81.087231,12.499988 82.519531,12.5 C 84.472644,12.499988 86.035142,12.174467 87.207031,11.523438 C 88.37889,10.872385 89.339176,9.9609275 90.087891,8.7890625 C 90.641258,7.9101483 91.536439,5.7291609 92.773438,2.2460938 C 92.936177,1.7578107 93.196594,1.0416656 93.554688,0.09765625 L 73.876953,-51.855469 L 83.349609,-51.855469 L 94.140625,-21.826172 C 95.540341,-18.01756 96.793595,-14.013658 97.900391,-9.8144531 C 98.909479,-13.850898 100.1139,-17.789696 101.51367,-21.630859 L 112.59766,-51.855469 L 121.38672,-51.855469 L 101.66016,0.87890625 C 99.544244,6.5755143 97.900365,10.498036 96.728516,12.646484 C 95.165993,15.543604 93.37563,17.667626 91.357422,19.018555 C 89.339176,20.369446 86.930324,21.044901 84.130859,21.044922 C 82.438141,21.044901 80.550122,20.686828 78.466797,19.970703 L 78.466797,19.970703 z M 125.3418,-15.478516 L 134.0332,-16.845703 C 134.52147,-13.362617 135.88052,-10.693349 138.11035,-8.8378906 C 140.34015,-6.9824149 143.45701,-6.0546814 147.46094,-6.0546875 C 151.49737,-6.0546814 154.49216,-6.8766207 156.44531,-8.5205078 C 158.3984,-10.164378 159.37496,-12.093087 159.375,-14.306641 C 159.37496,-16.292301 158.51233,-17.8548 156.78711,-18.994141 C 155.58265,-19.775371 152.58786,-20.768208 147.80273,-21.972656 C 141.3574,-23.600237 136.88963,-25.008113 134.39941,-26.196289 C 131.90917,-27.384413 130.02115,-29.028291 128.73535,-31.12793 C 127.44954,-33.227506 126.80664,-35.546839 126.80664,-38.085938 C 126.80664,-40.397095 127.33561,-42.537392 128.39355,-44.506836 C 129.45149,-46.476191 130.89192,-48.111931 132.71484,-49.414063 C 134.08202,-50.423127 135.94562,-51.277618 138.30566,-51.977539 C 140.66567,-52.677356 143.19659,-53.027291 145.89844,-53.027344 C 149.96742,-53.027291 153.54001,-52.441354 156.61621,-51.269531 C 159.69235,-50.097606 161.96285,-48.510694 163.42773,-46.508789 C 164.89254,-44.506791 165.90165,-41.829385 166.45508,-38.476563 L 157.86133,-37.304688 C 157.47067,-39.973918 156.33948,-42.05725 154.46777,-43.554688 C 152.596,-45.052038 149.95114,-45.800735 146.5332,-45.800781 C 142.49672,-45.800735 139.61587,-45.133418 137.89063,-43.798828 C 136.16535,-42.46415 135.30272,-40.901652 135.30273,-39.111328 C 135.30272,-37.971967 135.66079,-36.946578 136.37695,-36.035156 C 137.09308,-35.091111 138.21613,-34.309862 139.74609,-33.691406 C 140.62498,-33.365852 143.21287,-32.617155 147.50977,-31.445313 C 153.72718,-29.785126 158.06474,-28.426078 160.52246,-27.368164 C 162.9801,-26.310195 164.90881,-24.772111 166.30859,-22.753906 C 167.70829,-20.735656 168.40816,-18.229148 168.4082,-15.234375 C 168.40816,-12.304675 167.55367,-9.5458889 165.84473,-6.9580078 C 164.1357,-4.3701128 161.66988,-2.3681617 158.44727,-0.95214844 C 155.22458,0.46386672 151.57875,1.1718738 147.50977,1.171875 C 140.77147,1.1718738 135.63638,-0.22786436 132.10449,-3.0273438 C 128.57258,-5.8268171 126.31836,-9.9772036 125.3418,-15.478516 L 125.3418,-15.478516 z" transform="translate(1405.123,662.8066)" style="fill:#0000ff" />
<path d="M 25.927734,0 L 25.927734,-63.134766 L 2.34375,-63.134766 L 2.34375,-71.582031 L 59.082031,-71.582031 L 59.082031,-63.134766 L 35.400391,-63.134766 L 35.400391,0 L 25.927734,0 z M 61.767174,19.970703 L 60.790611,11.71875 C 62.711177,12.239571 64.387608,12.499988 65.819908,12.5 C 67.773021,12.499988 69.335519,12.174467 70.507408,11.523438 C 71.679267,10.872385 72.639553,9.9609275 73.388268,8.7890625 C 73.941635,7.9101483 74.836816,5.7291609 76.073814,2.2460938 C 76.236554,1.7578107 76.496971,1.0416656 76.855064,0.09765625 L 57.17733,-51.855469 L 66.649986,-51.855469 L 77.441002,-21.826172 C 78.840718,-18.01756 80.093972,-14.013658 81.200768,-9.8144531 C 82.209855,-13.850898 83.414281,-17.789696 84.814049,-21.630859 L 95.898033,-51.855469 L 104.6871,-51.855469 L 84.960533,0.87890625 C 82.84462,6.5755143 81.200742,10.498036 80.028893,12.646484 C 78.46637,15.543604 76.676007,17.667626 74.657799,19.018555 C 72.639553,20.369446 70.230701,21.044901 67.431236,21.044922 C 65.738518,21.044901 63.850499,20.686828 61.767174,19.970703 L 61.767174,19.970703 z M 112.06014,0 L 112.06014,-51.855469 L 119.9703,-51.855469 L 119.9703,-43.994141 C 121.98851,-47.672478 123.85212,-50.097606 125.56112,-51.269531 C 127.27008,-52.441354 129.14996,-53.027291 131.20077,-53.027344 C 134.16298,-53.027291 137.17404,-52.083281 140.23397,-50.195313 L 137.20663,-42.041016 C 135.05816,-43.310504 132.90972,-43.945269 130.76131,-43.945313 C 128.84072,-43.945269 127.11546,-43.36747 125.58553,-42.211914 C 124.05557,-41.056274 122.96507,-39.453086 122.31405,-37.402344 C 121.33747,-34.277309 120.84919,-30.859344 120.84921,-27.148438 L 120.84921,0 L 112.06014,0 z" transform="translate(2505.123,283.2988)" style="fill:#0000ff" />
<path d="M 9.3261719,0 L 9.3261719,-71.582031 L 18.798828,-71.582031 L 18.798828,0 L 9.3261719,0 z M 34.130859,0 L 34.130859,-71.582031 L 42.919922,-71.582031 L 42.919922,0 L 34.130859,0 z M 92.089844,-16.699219 L 101.17188,-15.576172 C 99.739534,-10.270172 97.086541,-6.1523376 93.212891,-3.2226563 C 89.339153,-0.29296846 84.391242,1.1718738 78.369141,1.171875 C 70.784484,1.1718738 64.770493,-1.1637358 60.327148,-5.8349609 C 55.883783,-10.506174 53.662106,-17.057275 53.662109,-25.488281 C 53.662106,-34.212205 55.908197,-40.983032 60.400391,-45.800781 C 64.892563,-50.618439 70.71938,-53.027291 77.880859,-53.027344 C 84.814418,-53.027291 90.478475,-50.667267 94.873047,-45.947266 C 99.267529,-41.227172 101.46479,-34.586554 101.46484,-26.025391 C 101.46479,-25.504532 101.44852,-24.723283 101.41602,-23.681641 L 62.744141,-23.681641 C 63.069648,-17.985008 64.680975,-13.623033 67.578125,-10.595703 C 70.47524,-7.5683518 74.088518,-6.0546814 78.417969,-6.0546875 C 81.640593,-6.0546814 84.391242,-6.9010348 86.669922,-8.59375 C 88.948529,-10.286448 90.755168,-12.988268 92.089844,-16.699219 L 92.089844,-16.699219 z M 63.232422,-30.908203 L 92.1875,-30.908203 C 91.796833,-35.270147 90.690063,-38.541628 88.867188,-40.722656 C 86.067672,-44.108029 82.438119,-45.800735 77.978516,-45.800781 C 73.942033,-45.800735 70.548482,-44.449825 67.797852,-41.748047 C 65.047185,-39.046185 63.525377,-35.432907 63.232422,-30.908203 L 63.232422,-30.908203 z" transform="translate(2520.123,933.2988)" style="fill:#0000ff" />
<path d="M 41.210938,-28.076172 L 41.210938,-36.474609 L 71.533203,-36.523438 L 71.533203,-9.9609375 C 66.878188,-6.2499937 62.076761,-3.4586554 57.128906,-1.5869141 C 52.180937,0.28483044 47.102817,1.2207019 41.894531,1.2207031 C 34.863246,1.2207019 28.474906,-0.28483044 22.729492,-3.2958984 C 16.984032,-6.3069598 12.646472,-10.660797 9.7167969,-16.357422 C 6.7871026,-22.054014 5.3222603,-28.41794 5.3222656,-35.449219 C 5.3222603,-42.415322 6.7789646,-48.917594 9.6923828,-54.956055 C 12.605782,-60.994405 16.796858,-65.47845 22.265625,-68.408203 C 27.734347,-71.337819 34.033169,-72.802662 41.162109,-72.802734 C 46.337844,-72.802662 51.017202,-71.964446 55.200195,-70.288086 C 59.383079,-68.611585 62.662698,-66.275975 65.039063,-63.28125 C 67.415297,-60.286398 69.221936,-56.380152 70.458984,-51.5625 L 61.914063,-49.21875 C 60.839783,-52.86453 59.505149,-55.729111 57.910156,-57.8125 C 56.315048,-59.895773 54.036404,-61.564066 51.074219,-62.817383 C 48.111931,-64.070574 44.824174,-64.697201 41.210938,-64.697266 C 36.881474,-64.697201 33.137988,-64.038022 29.980469,-62.719727 C 26.82289,-61.401306 24.275692,-59.667909 22.338867,-57.519531 C 20.401998,-55.371038 18.896465,-53.011015 17.822266,-50.439453 C 15.999333,-46.012324 15.087876,-41.210896 15.087891,-36.035156 C 15.087876,-29.654918 16.186507,-24.316382 18.383789,-20.019531 C 20.581034,-15.722641 23.779273,-12.53254 27.978516,-10.449219 C 32.177702,-8.3658771 36.637333,-7.3242114 41.357422,-7.3242188 C 45.458939,-7.3242114 49.462841,-8.1135987 53.369141,-9.6923828 C 57.275333,-11.271148 60.23757,-12.955716 62.255859,-14.746094 L 62.255859,-28.076172 L 41.210938,-28.076172 z M 84.130859,0 L 84.130859,-71.582031 L 92.919922,-71.582031 L 92.919922,0 L 84.130859,0 z M 106.5918,0 L 106.5918,-51.855469 L 114.50195,-51.855469 L 114.50195,-44.482422 C 118.31053,-50.178986 123.81183,-53.027291 131.00586,-53.027344 C 134.13083,-53.027291 137.00354,-52.465768 139.62402,-51.342773 C 142.24442,-50.219676 144.20568,-48.746696 145.50781,-46.923828 C 146.80985,-45.100866 147.72131,-42.936155 148.24219,-40.429688 C 148.56766,-38.802045 148.73042,-35.95374 148.73047,-31.884766 L 148.73047,0 L 139.94141,0 L 139.94141,-31.542969 C 139.94137,-35.123663 139.59957,-37.801069 138.91602,-39.575195 C 138.23238,-41.349243 137.01982,-42.765257 135.27832,-43.823242 C 133.53675,-44.88114 131.49411,-45.410111 129.15039,-45.410156 C 125.40688,-45.410111 122.17608,-44.221961 119.45801,-41.845703 C 116.73989,-39.469362 115.38084,-34.960903 115.38086,-28.320313 L 115.38086,0 L 106.5918,0 z" transform="translate(2355.123,1218.299)" style="fill:#0000ff" />
<path d="M -0.14648438,0 L 27.34375,-71.582031 L 37.548828,-71.582031 L 66.845703,0 L 56.054688,0 L 47.705078,-21.679688 L 17.773438,-21.679688 L 9.9121094,0 L -0.14648438,0 z M 20.507813,-29.394531 L 44.775391,-29.394531 L 37.304688,-49.21875 C 35.026007,-55.24083 33.3333,-60.188742 32.226563,-64.0625 C 31.315073,-59.472597 30.029267,-54.91531 28.369141,-50.390625 L 20.507813,-29.394531 z M 69.873047,-15.478516 L 78.564453,-16.845703 C 79.052722,-13.362617 80.41177,-10.693349 82.641602,-8.8378906 C 84.871401,-6.9824149 87.98826,-6.0546814 91.992188,-6.0546875 C 96.028617,-6.0546814 99.023405,-6.8766207 100.97656,-8.5205078 C 102.92965,-10.164378 103.90621,-12.093087 103.90625,-14.306641 C 103.90621,-16.292301 103.04358,-17.8548 101.31836,-18.994141 C 100.1139,-19.775371 97.11911,-20.768208 92.333984,-21.972656 C 85.888653,-23.600237 81.420884,-25.008113 78.930664,-26.196289 C 76.44042,-27.384413 74.552401,-29.028291 73.266602,-31.12793 C 71.980789,-33.227506 71.337886,-35.546839 71.337891,-38.085938 C 71.337886,-40.397095 71.866857,-42.537392 72.924805,-44.506836 C 73.98274,-46.476191 75.423168,-48.111931 77.246094,-49.414063 C 78.613269,-50.423127 80.476874,-51.277618 82.836914,-51.977539 C 85.196922,-52.677356 87.727844,-53.027291 90.429688,-53.027344 C 94.49867,-53.027291 98.071258,-52.441354 101.14746,-51.269531 C 104.2236,-50.097606 106.4941,-48.510694 107.95898,-46.508789 C 109.42379,-44.506791 110.4329,-41.829385 110.98633,-38.476563 L 102.39258,-37.304688 C 102.00192,-39.973918 100.87073,-42.05725 98.999023,-43.554688 C 97.127248,-45.052038 94.482394,-45.800735 91.064453,-45.800781 C 87.027975,-45.800735 84.147118,-45.133418 82.421875,-43.798828 C 80.696601,-42.46415 79.833971,-40.901652 79.833984,-39.111328 C 79.833971,-37.971967 80.192044,-36.946578 80.908203,-36.035156 C 81.624334,-35.091111 82.74738,-34.309862 84.277344,-33.691406 C 85.156232,-33.365852 87.74412,-32.617155 92.041016,-31.445313 C 98.258432,-29.785126 102.59599,-28.426078 105.05371,-27.368164 C 107.51135,-26.310195 109.44006,-24.772111 110.83984,-22.753906 C 112.23954,-20.735656 112.93941,-18.229148 112.93945,-15.234375 C 112.93941,-12.304675 112.08492,-9.5458889 110.37598,-6.9580078 C 108.66695,-4.3701128 106.20113,-2.3681617 102.97852,-0.95214844 C 99.755826,0.46386672 96.109997,1.1718738 92.041016,1.171875 C 85.302716,1.1718738 80.16763,-0.22786436 76.635742,-3.0273438 C 73.103835,-5.8268171 70.849605,-9.9772036 69.873047,-15.478516 L 69.873047,-15.478516 z M 123.38867,0 L 123.38867,-51.855469 L 131.29883,-51.855469 L 131.29883,-44.482422 C 135.1074,-50.178986 140.6087,-53.027291 147.80273,-53.027344 C 150.9277,-53.027291 153.80042,-52.465768 156.4209,-51.342773 C 159.0413,-50.219676 161.00256,-48.746696 162.30469,-46.923828 C 163.60672,-45.100866 164.51818,-42.936155 165.03906,-40.429688 C 165.36453,-38.802045 165.5273,-35.95374 165.52734,-31.884766 L 165.52734,0 L 156.73828,0 L 156.73828,-31.542969 C 156.73824,-35.123663 156.39644,-37.801069 155.71289,-39.575195 C 155.02926,-41.349243 153.81669,-42.765257 152.0752,-43.823242 C 150.33363,-44.88114 148.29098,-45.410111 145.94727,-45.410156 C 142.20375,-45.410111 138.97296,-44.221961 136.25488,-41.845703 C 133.53677,-39.469362 132.17772,-34.960903 132.17773,-28.320313 L 132.17773,0 L 123.38867,0 z" transform="translate(1810.123,1498.299)" style="fill:#0000ff" />
<path d="M 58.789063,-25.097656 L 68.261719,-22.705078 C 66.275975,-14.925115 62.703388,-8.992504 57.543945,-4.9072266 C 52.384388,-0.82193928 46.077428,1.2207019 38.623047,1.2207031 C 30.908172,1.2207019 24.633764,-0.34993455 19.799805,-3.4912109 C 14.965805,-6.6324803 11.287424,-11.181629 8.7646484,-17.138672 C 6.2418557,-23.09568 4.9804638,-29.492158 4.9804688,-36.328125 C 4.9804638,-43.782508 6.404616,-50.28478 9.2529297,-55.834961 C 12.101225,-61.38503 16.153955,-65.60052 21.411133,-68.481445 C 26.668268,-71.362233 32.454395,-72.802662 38.769531,-72.802734 C 45.930944,-72.802662 51.953073,-70.979747 56.835938,-67.333984 C 61.718688,-63.688087 65.120378,-58.561139 67.041016,-51.953125 L 57.714844,-49.755859 C 56.054631,-54.964138 53.64578,-58.756452 50.488281,-61.132813 C 47.330682,-63.509051 43.359332,-64.697201 38.574219,-64.697266 C 33.072884,-64.697201 28.474906,-63.378843 24.780273,-60.742188 C 21.085591,-58.105411 18.489565,-54.565375 16.992188,-50.12207 C 15.494776,-45.678665 14.746079,-41.096964 14.746094,-36.376953 C 14.746079,-30.289683 15.633122,-24.975561 17.407227,-20.43457 C 19.181296,-15.893539 21.940082,-12.499988 25.683594,-10.253906 C 29.427054,-8.0078045 33.479784,-6.8847587 37.841797,-6.8847656 C 43.147743,-6.8847587 47.639926,-8.4147051 51.318359,-11.474609 C 54.99669,-14.534491 57.486922,-19.075502 58.789063,-25.097656 L 58.789063,-25.097656 z M 78.466797,19.970703 L 77.490234,11.71875 C 79.4108,12.239571 81.087231,12.499988 82.519531,12.5 C 84.472644,12.499988 86.035142,12.174467 87.207031,11.523438 C 88.37889,10.872385 89.339176,9.9609275 90.087891,8.7890625 C 90.641258,7.9101483 91.536439,5.7291609 92.773438,2.2460938 C 92.936177,1.7578107 93.196594,1.0416656 93.554688,0.09765625 L 73.876953,-51.855469 L 83.349609,-51.855469 L 94.140625,-21.826172 C 95.540341,-18.01756 96.793595,-14.013658 97.900391,-9.8144531 C 98.909479,-13.850898 100.1139,-17.789696 101.51367,-21.630859 L 112.59766,-51.855469 L 121.38672,-51.855469 L 101.66016,0.87890625 C 99.544244,6.5755143 97.900365,10.498036 96.728516,12.646484 C 95.165993,15.543604 93.37563,17.667626 91.357422,19.018555 C 89.339176,20.369446 86.930324,21.044901 84.130859,21.044922 C 82.438141,21.044901 80.550122,20.686828 78.466797,19.970703 L 78.466797,19.970703 z M 125.3418,-15.478516 L 134.0332,-16.845703 C 134.52147,-13.362617 135.88052,-10.693349 138.11035,-8.8378906 C 140.34015,-6.9824149 143.45701,-6.0546814 147.46094,-6.0546875 C 151.49737,-6.0546814 154.49216,-6.8766207 156.44531,-8.5205078 C 158.3984,-10.164378 159.37496,-12.093087 159.375,-14.306641 C 159.37496,-16.292301 158.51233,-17.8548 156.78711,-18.994141 C 155.58265,-19.775371 152.58786,-20.768208 147.80273,-21.972656 C 141.3574,-23.600237 136.88963,-25.008113 134.39941,-26.196289 C 131.90917,-27.384413 130.02115,-29.028291 128.73535,-31.12793 C 127.44954,-33.227506 126.80664,-35.546839 126.80664,-38.085938 C 126.80664,-40.397095 127.33561,-42.537392 128.39355,-44.506836 C 129.45149,-46.476191 130.89192,-48.111931 132.71484,-49.414063 C 134.08202,-50.423127 135.94562,-51.277618 138.30566,-51.977539 C 140.66567,-52.677356 143.19659,-53.027291 145.89844,-53.027344 C 149.96742,-53.027291 153.54001,-52.441354 156.61621,-51.269531 C 159.69235,-50.097606 161.96285,-48.510694 163.42773,-46.508789 C 164.89254,-44.506791 165.90165,-41.829385 166.45508,-38.476563 L 157.86133,-37.304688 C 157.47067,-39.973918 156.33948,-42.05725 154.46777,-43.554688 C 152.596,-45.052038 149.95114,-45.800735 146.5332,-45.800781 C 142.49672,-45.800735 139.61587,-45.133418 137.89063,-43.798828 C 136.16535,-42.46415 135.30272,-40.901652 135.30273,-39.111328 C 135.30272,-37.971967 135.66079,-36.946578 136.37695,-36.035156 C 137.09308,-35.091111 138.21613,-34.309862 139.74609,-33.691406 C 140.62498,-33.365852 143.21287,-32.617155 147.50977,-31.445313 C 153.72718,-29.785126 158.06474,-28.426078 160.52246,-27.368164 C 162.9801,-26.310195 164.90881,-24.772111 166.30859,-22.753906 C 167.70829,-20.735656 168.40816,-18.229148 168.4082,-15.234375 C 168.40816,-12.304675 167.55367,-9.5458889 165.84473,-6.9580078 C 164.1357,-4.3701128 161.66988,-2.3681617 158.44727,-0.95214844 C 155.22458,0.46386672 151.57875,1.1718738 147.50977,1.171875 C 140.77147,1.1718738 135.63638,-0.22786436 132.10449,-3.0273438 C 128.57258,-5.8268171 126.31836,-9.9772036 125.3418,-15.478516 L 125.3418,-15.478516 z" transform="translate(1250.123,918.8174)" style="fill:#0000ff" />
<path d="M 7.7148438,0 L 7.7148438,-71.582031 L 34.716797,-71.582031 C 39.469362,-71.58196 43.098915,-71.354095 45.605469,-70.898438 C 49.121045,-70.31243 52.067005,-69.197522 54.443359,-67.553711 C 56.819605,-65.909765 58.732038,-63.606707 60.180664,-60.644531 C 61.62917,-57.682234 62.353453,-54.427029 62.353516,-50.878906 C 62.353453,-44.791622 60.416606,-39.64026 56.542969,-35.424805 C 52.669218,-31.209279 45.670527,-29.101533 35.546875,-29.101563 L 17.1875,-29.101563 L 17.1875,0 L 7.7148438,0 z M 17.1875,-37.548828 L 35.693359,-37.548828 C 41.813109,-37.548791 46.158808,-38.688112 48.730469,-40.966797 C 51.302032,-43.245399 52.587838,-46.451776 52.587891,-50.585938 C 52.587838,-53.580676 51.831003,-56.14415 50.317383,-58.276367 C 48.803662,-60.408468 46.809849,-61.816344 44.335938,-62.5 C 42.740843,-62.923114 39.794882,-63.134702 35.498047,-63.134766 L 17.1875,-63.134766 L 17.1875,-37.548828 z M 73.291016,0 L 73.291016,-51.855469 L 81.201172,-51.855469 L 81.201172,-43.994141 C 83.219385,-47.672478 85.08299,-50.097606 86.791992,-51.269531 C 88.500955,-52.441354 90.380836,-53.027291 92.431641,-53.027344 C 95.393852,-53.027291 98.404916,-52.083281 101.46484,-50.195313 L 98.4375,-42.041016 C 96.289033,-43.310504 94.140598,-43.945269 91.992188,-43.945313 C 90.071591,-43.945269 88.346333,-43.36747 86.816406,-42.211914 C 85.28644,-41.056274 84.195946,-39.453086 83.544922,-37.402344 C 82.568344,-34.277309 82.080063,-30.859344 82.080078,-27.148438 L 82.080078,0 L 73.291016,0 z M 103.51563,-25.927734 C 103.51562,-35.530563 106.18489,-42.643187 111.52344,-47.265625 C 115.98306,-51.10672 121.41925,-53.027291 127.83203,-53.027344 C 134.9609,-53.027291 140.78772,-50.691681 145.3125,-46.020508 C 149.83719,-41.349243 152.09956,-34.895798 152.09961,-26.660156 C 152.09956,-19.986959 151.09858,-14.737941 149.09668,-10.913086 C 147.09468,-7.0882091 144.18127,-4.1178344 140.35645,-2.0019531 C 136.53154,0.11393218 132.35674,1.1718738 127.83203,1.171875 C 120.5729,1.1718738 114.70539,-1.1555978 110.22949,-5.8105469 C 105.75358,-10.465484 103.51562,-17.171207 103.51563,-25.927734 L 103.51563,-25.927734 z M 112.54883,-25.927734 C 112.54882,-19.28709 113.99738,-14.314764 116.89453,-11.010742 C 119.79165,-7.706698 123.43748,-6.0546814 127.83203,-6.0546875 C 132.19398,-6.0546814 135.82353,-7.714836 138.7207,-11.035156 C 141.6178,-14.355454 143.06636,-19.417298 143.06641,-26.220703 C 143.06636,-32.633431 141.60966,-37.491824 138.69629,-40.795898 C 135.78284,-44.099891 132.16143,-45.751907 127.83203,-45.751953 C 123.43748,-45.751907 119.79165,-44.108029 116.89453,-40.820313 C 113.99738,-37.532515 112.54882,-32.568327 112.54883,-25.927734 L 112.54883,-25.927734 z" transform="translate(965.123,918.2988)" style="fill:#0000ff" />
<path d="M 7.3242188,0 L 7.3242188,-71.582031 L 16.796875,-71.582031 L 16.796875,-8.4472656 L 52.050781,-8.4472656 L 52.050781,0 L 7.3242188,0 z M 97.753906,-16.699219 L 106.83594,-15.576172 C 105.4036,-10.270172 102.7506,-6.1523376 98.876953,-3.2226563 C 95.003216,-0.29296846 90.055304,1.1718738 84.033203,1.171875 C 76.448547,1.1718738 70.434556,-1.1637358 65.991211,-5.8349609 C 61.547846,-10.506174 59.326168,-17.057275 59.326172,-25.488281 C 59.326168,-34.212205 61.57226,-40.983032 66.064453,-45.800781 C 70.556626,-50.618439 76.383443,-53.027291 83.544922,-53.027344 C 90.478481,-53.027291 96.142538,-50.667267 100.53711,-45.947266 C 104.93159,-41.227172 107.12885,-34.586554 107.12891,-26.025391 C 107.12885,-25.504532 107.11258,-24.723283 107.08008,-23.681641 L 68.408203,-23.681641 C 68.733711,-17.985008 70.345037,-13.623033 73.242188,-10.595703 C 76.139302,-7.5683518 79.75258,-6.0546814 84.082031,-6.0546875 C 87.304656,-6.0546814 90.055304,-6.9010348 92.333984,-8.59375 C 94.612591,-10.286448 96.41923,-12.988268 97.753906,-16.699219 L 97.753906,-16.699219 z M 68.896484,-30.908203 L 97.851563,-30.908203 C 97.460896,-35.270147 96.354126,-38.541628 94.53125,-40.722656 C 91.731735,-44.108029 88.102181,-45.800735 83.642578,-45.800781 C 79.606096,-45.800735 76.212545,-44.449825 73.461914,-41.748047 C 70.711248,-39.046185 69.18944,-35.432907 68.896484,-30.908203 L 68.896484,-30.908203 z M 151.9043,0 L 151.9043,-7.6171875 C 147.8678,-1.7578107 142.38278,1.1718738 135.44922,1.171875 C 132.3893,1.1718738 129.53286,0.58593691 126.87988,-0.5859375 C 124.22688,-1.7578107 122.25748,-3.230791 120.97168,-5.0048828 C 119.68586,-6.7789646 118.78254,-8.951814 118.26172,-11.523438 C 117.90364,-13.248685 117.7246,-15.983057 117.72461,-19.726563 L 117.72461,-51.855469 L 126.51367,-51.855469 L 126.51367,-23.095703 C 126.51366,-18.505841 126.69269,-15.413396 127.05078,-13.818359 C 127.60415,-11.50715 128.77602,-9.6923731 130.56641,-8.3740234 C 132.35675,-7.055657 134.57029,-6.396478 137.20703,-6.3964844 C 139.84372,-6.396478 142.31768,-7.071933 144.62891,-8.4228516 C 146.94007,-9.7737532 148.57581,-11.612944 149.53613,-13.94043 C 150.49638,-16.267887 150.97652,-19.645163 150.97656,-24.072266 L 150.97656,-51.855469 L 159.76563,-51.855469 L 159.76563,0 L 151.9043,0 z" transform="translate(440.123,1033.299)" style="fill:#0000ff" />
<path d="M 41.210938,-28.076172 L 41.210938,-36.474609 L 71.533203,-36.523438 L 71.533203,-9.9609375 C 66.878188,-6.2499937 62.076761,-3.4586554 57.128906,-1.5869141 C 52.180937,0.28483044 47.102817,1.2207019 41.894531,1.2207031 C 34.863246,1.2207019 28.474906,-0.28483044 22.729492,-3.2958984 C 16.984032,-6.3069598 12.646472,-10.660797 9.7167969,-16.357422 C 6.7871026,-22.054014 5.3222603,-28.41794 5.3222656,-35.449219 C 5.3222603,-42.415322 6.7789646,-48.917594 9.6923828,-54.956055 C 12.605782,-60.994405 16.796858,-65.47845 22.265625,-68.408203 C 27.734347,-71.337819 34.033169,-72.802662 41.162109,-72.802734 C 46.337844,-72.802662 51.017202,-71.964446 55.200195,-70.288086 C 59.383079,-68.611585 62.662698,-66.275975 65.039063,-63.28125 C 67.415297,-60.286398 69.221936,-56.380152 70.458984,-51.5625 L 61.914063,-49.21875 C 60.839783,-52.86453 59.505149,-55.729111 57.910156,-57.8125 C 56.315048,-59.895773 54.036404,-61.564066 51.074219,-62.817383 C 48.111931,-64.070574 44.824174,-64.697201 41.210938,-64.697266 C 36.881474,-64.697201 33.137988,-64.038022 29.980469,-62.719727 C 26.82289,-61.401306 24.275692,-59.667909 22.338867,-57.519531 C 20.401998,-55.371038 18.896465,-53.011015 17.822266,-50.439453 C 15.999333,-46.012324 15.087876,-41.210896 15.087891,-36.035156 C 15.087876,-29.654918 16.186507,-24.316382 18.383789,-20.019531 C 20.581034,-15.722641 23.779273,-12.53254 27.978516,-10.449219 C 32.177702,-8.3658771 36.637333,-7.3242114 41.357422,-7.3242188 C 45.458939,-7.3242114 49.462841,-8.1135987 53.369141,-9.6923828 C 57.275333,-11.271148 60.23757,-12.955716 62.255859,-14.746094 L 62.255859,-28.076172 L 41.210938,-28.076172 z M 84.130859,0 L 84.130859,-71.582031 L 92.919922,-71.582031 L 92.919922,0 L 84.130859,0 z M 106.20117,19.970703 L 105.22461,11.71875 C 107.14518,12.239571 108.82161,12.499988 110.25391,12.5 C 112.20702,12.499988 113.76952,12.174467 114.94141,11.523438 C 116.11327,10.872385 117.07355,9.9609275 117.82227,8.7890625 C 118.37563,7.9101483 119.27081,5.7291609 120.50781,2.2460938 C 120.67055,1.7578107 120.93097,1.0416656 121.28906,0.09765625 L 101.61133,-51.855469 L 111.08398,-51.855469 L 121.875,-21.826172 C 123.27472,-18.01756 124.52797,-14.013658 125.63477,-9.8144531 C 126.64385,-13.850898 127.84828,-17.789696 129.24805,-21.630859 L 140.33203,-51.855469 L 149.12109,-51.855469 L 129.39453,0.87890625 C 127.27862,6.5755143 125.63474,10.498036 124.46289,12.646484 C 122.90037,15.543604 121.11,17.667626 119.0918,19.018555 C 117.07355,20.369446 114.6647,21.044901 111.86523,21.044922 C 110.17252,21.044901 108.2845,20.686828 106.20117,19.970703 L 106.20117,19.970703 z" transform="translate(305.123,1552.808)" style="fill:#0000ff" />
</g>
</svg>

